<svg xmlns="http://www.w3.org/2000/svg" xmlns:xlink="http://www.w3.org/1999/xlink" width="140" zoomAndPan="magnify" viewBox="0 0 104.88 74.999997" height="100" preserveAspectRatio="xMidYMid meet" version="1.0"><defs><clipPath id="id1"><path d="M 3.554688 19 L 101.695312 19 L 101.695312 74.957031 L 3.554688 74.957031 Z M 3.554688 19 " clip-rule="nonzero"/></clipPath><clipPath id="id2"><path d="M 3.554688 57 L 12 57 L 12 61 L 3.554688 61 Z M 3.554688 57 " clip-rule="nonzero"/></clipPath><clipPath id="id3"><path d="M 3.554688 0.0429688 L 47 0.0429688 L 47 43 L 3.554688 43 Z M 3.554688 0.0429688 " clip-rule="nonzero"/></clipPath></defs><g clip-path="url(#id1)"><path fill="#008037" d="M 73.878906 44.015625 L 73.878906 29.355469 L 84.644531 29.355469 L 98.398438 43.058594 L 98.398438 44.015625 Z M 82.050781 71.699219 C 77.542969 71.699219 73.878906 68.046875 73.878906 63.558594 C 73.878906 59.066406 77.542969 55.414062 82.050781 55.414062 C 86.558594 55.414062 90.226562 59.066406 90.226562 63.558594 C 90.226562 68.046875 86.558594 71.699219 82.050781 71.699219 Z M 44.273438 71.699219 C 46.027344 69.988281 47.222656 67.71875 47.585938 65.1875 L 70.742188 65.1875 C 71.105469 67.71875 72.300781 69.988281 74.054688 71.699219 Z M 28.101562 63.558594 C 28.101562 59.066406 31.769531 55.414062 36.277344 55.414062 C 40.785156 55.414062 44.449219 59.066406 44.449219 63.558594 C 44.449219 68.046875 40.785156 71.699219 36.277344 71.699219 C 31.769531 71.699219 28.101562 68.046875 28.101562 63.558594 Z M 101.191406 41.234375 L 80.894531 21.015625 C 79.96875 20.09375 78.738281 19.585938 77.429688 19.585938 L 49.355469 19.585938 L 49.355469 22.84375 L 57.53125 22.84375 L 57.53125 47.269531 L 60.800781 47.269531 L 60.800781 22.84375 L 77.429688 22.84375 C 77.863281 22.84375 78.277344 23.015625 78.585938 23.320312 L 81.375 26.101562 L 73.878906 26.101562 C 72.078125 26.101562 70.609375 27.5625 70.609375 29.355469 L 70.609375 44.015625 C 70.609375 45.808594 72.078125 47.269531 73.878906 47.269531 L 98.398438 47.269531 L 98.398438 60.300781 C 98.398438 61.195312 97.664062 61.929688 96.765625 61.929688 L 93.359375 61.929688 C 92.570312 56.414062 87.804688 52.15625 82.050781 52.15625 C 76.296875 52.15625 71.535156 56.414062 70.742188 61.929688 L 47.585938 61.929688 C 46.792969 56.414062 42.03125 52.15625 36.277344 52.15625 C 30.523438 52.15625 25.757812 56.414062 24.96875 61.929688 L 21.5625 61.929688 C 20.664062 61.929688 19.929688 61.195312 19.929688 60.300781 L 19.929688 45.644531 L 16.660156 45.644531 L 16.660156 60.300781 C 16.660156 62.996094 18.855469 65.1875 21.5625 65.1875 L 24.96875 65.1875 C 25.332031 67.71875 26.527344 69.988281 28.28125 71.699219 L 3.582031 71.699219 L 3.582031 74.957031 L 82.050781 74.957031 C 87.804688 74.957031 92.570312 70.703125 93.359375 65.1875 L 96.765625 65.1875 C 99.472656 65.1875 101.667969 62.996094 101.667969 60.300781 L 101.667969 42.386719 C 101.667969 41.953125 101.496094 41.539062 101.191406 41.234375 " fill-opacity="1" fill-rule="nonzero"/></g><path fill="#008037" d="M 34.640625 65.1875 L 37.910156 65.1875 L 37.910156 61.929688 L 34.640625 61.929688 L 34.640625 65.1875 " fill-opacity="1" fill-rule="nonzero"/><path fill="#008037" d="M 80.417969 65.1875 L 83.6875 65.1875 L 83.6875 61.929688 L 80.417969 61.929688 L 80.417969 65.1875 " fill-opacity="1" fill-rule="nonzero"/><g clip-path="url(#id2)"><path fill="#008037" d="M 11.753906 57.042969 L 3.582031 57.042969 L 3.582031 60.300781 L 11.753906 60.300781 L 11.753906 57.042969 " fill-opacity="1" fill-rule="nonzero"/></g><path fill="#008037" d="M 6.851562 53.785156 L 11.753906 53.785156 L 11.753906 50.527344 L 6.851562 50.527344 L 6.851562 53.785156 " fill-opacity="1" fill-rule="nonzero"/><path fill="#008037" d="M 11.753906 44.015625 L 8.484375 44.015625 L 8.484375 47.269531 L 11.753906 47.269531 L 11.753906 44.015625 " fill-opacity="1" fill-rule="nonzero"/><g clip-path="url(#id3)"><path fill="#008037" d="M 24.832031 3.300781 C 34.75 3.300781 42.816406 11.335938 42.816406 21.214844 C 42.816406 31.09375 34.75 39.128906 24.832031 39.128906 C 14.914062 39.128906 6.851562 31.09375 6.851562 21.214844 C 6.851562 11.335938 14.914062 3.300781 24.832031 3.300781 Z M 24.832031 42.386719 C 36.550781 42.386719 46.085938 32.886719 46.085938 21.214844 C 46.085938 9.539062 36.550781 0.0429688 24.832031 0.0429688 C 13.113281 0.0429688 3.582031 9.539062 3.582031 21.214844 C 3.582031 32.886719 13.113281 42.386719 24.832031 42.386719 " fill-opacity="1" fill-rule="nonzero"/></g><path fill="#008037" d="M 24.832031 9.8125 C 29.34375 9.8125 33.007812 13.464844 33.007812 17.957031 C 33.007812 22.136719 27.859375 28.59375 24.832031 31.882812 C 21.804688 28.59375 16.660156 22.136719 16.660156 17.957031 C 16.660156 13.464844 20.324219 9.8125 24.832031 9.8125 Z M 24.832031 35.871094 C 25.253906 35.871094 25.667969 35.710938 25.988281 35.394531 C 27.042969 34.34375 36.277344 24.941406 36.277344 17.957031 C 36.277344 11.671875 31.144531 6.558594 24.832031 6.558594 C 18.523438 6.558594 13.390625 11.671875 13.390625 17.957031 C 13.390625 24.941406 22.625 34.34375 23.675781 35.394531 C 23.996094 35.710938 24.410156 35.871094 24.832031 35.871094 " fill-opacity="1" fill-rule="nonzero"/><path fill="#008037" d="M 23.199219 17.957031 C 23.199219 17.058594 23.933594 16.328125 24.832031 16.328125 C 25.734375 16.328125 26.46875 17.058594 26.46875 17.957031 C 26.46875 18.855469 25.734375 19.585938 24.832031 19.585938 C 23.933594 19.585938 23.199219 18.855469 23.199219 17.957031 Z M 29.738281 17.957031 C 29.738281 15.261719 27.539062 13.070312 24.832031 13.070312 C 22.125 13.070312 19.929688 15.261719 19.929688 17.957031 C 19.929688 20.65625 22.125 22.84375 24.832031 22.84375 C 27.539062 22.84375 29.738281 20.65625 29.738281 17.957031 " fill-opacity="1" fill-rule="nonzero"/><path fill="#008037" d="M 65.703125 50.527344 L 65.703125 53.785156 L 72.242188 53.785156 L 72.242188 50.527344 L 65.703125 50.527344 " fill-opacity="1" fill-rule="nonzero"/></svg>