<svg xmlns="http://www.w3.org/2000/svg" xmlns:xlink="http://www.w3.org/1999/xlink" width="364" zoomAndPan="magnify" viewBox="0 0 273 149.999998" height="200" preserveAspectRatio="xMidYMid meet" version="1.0"><defs><g/></defs><g fill="#00c4cc" fill-opacity="1"><g transform="translate(61.742206, 80.714331)"><g><path d="M 30.851562 -43.636719 C 31.902344 -43.902344 32.785156 -44.414062 33.652344 -45.0625 C 34.453125 -45.703125 35.09375 -46.527344 35.644531 -47.542969 C 36.621094 -49.488281 36.589844 -51.917969 35.695312 -54.78125 C 34.714844 -53.984375 33.738281 -53.660156 32.921875 -53.695312 C 32.042969 -53.722656 31.332031 -53.972656 30.785156 -54.582031 C 30.179688 -55.117188 29.746094 -55.875 29.5 -56.789062 C 29.25 -57.707031 29.203125 -58.644531 29.335938 -59.746094 C 29.6875 -61.816406 30.507812 -63.40625 31.867188 -64.453125 C 33.222656 -65.5 34.757812 -66.230469 36.472656 -66.574219 C 38.1875 -66.921875 39.984375 -67.144531 41.742188 -67.160156 C 43.4375 -67.097656 45.144531 -66.972656 46.792969 -66.769531 C 48.441406 -66.566406 50.03125 -66.289062 51.5625 -65.9375 C 52.261719 -65.753906 52.957031 -65.570312 53.589844 -65.378906 C 54.222656 -65.183594 54.847656 -65.058594 55.480469 -64.867188 C 56.046875 -64.664062 56.6875 -64.40625 57.316406 -64.214844 C 57.890625 -63.949219 58.597656 -63.695312 59.382812 -63.386719 C 60.097656 -63.070312 60.878906 -62.761719 61.660156 -62.453125 C 62.441406 -62.144531 63.214844 -61.898438 64.054688 -61.667969 C 65.679688 -61.121094 67.351562 -60.71875 69.074219 -60.460938 C 70.730469 -60.191406 72.351562 -60.1875 73.800781 -60.503906 C 75 -60.652344 76.101562 -61.058594 76.964844 -61.707031 C 77.839844 -62.285156 78.566406 -62.984375 79.132812 -63.867188 C 79.640625 -64.671875 80.011719 -65.53125 80.160156 -66.496094 C 80.320312 -67.394531 80.339844 -68.34375 80.222656 -69.273438 C 80.058594 -70.066406 79.757812 -70.839844 79.328125 -71.597656 C 78.894531 -72.355469 78.332031 -73.097656 77.640625 -73.757812 C 76.894531 -74.339844 76.078125 -74.917969 75.070312 -75.398438 C 74.074219 -75.816406 73.015625 -76.160156 71.777344 -76.34375 C 71.976562 -74.746094 71.988281 -73.53125 71.707031 -72.550781 C 71.421875 -71.570312 70.976562 -70.769531 70.371094 -70.222656 C 69.769531 -69.605469 69.011719 -69.175781 68.09375 -68.925781 C 67.179688 -68.679688 66.253906 -68.496094 65.308594 -68.515625 C 63.964844 -68.417969 62.683594 -68.394531 61.453125 -68.511719 C 60.164062 -68.554688 58.929688 -68.671875 57.757812 -68.867188 L 50.675781 -69.816406 C 48.347656 -70.070312 45.964844 -70.183594 43.601562 -70.160156 C 41.238281 -70.140625 38.707031 -69.828125 35.960938 -69.082031 C 34.128906 -68.585938 32.320312 -67.890625 30.527344 -67.058594 C 28.738281 -66.230469 27.164062 -65.292969 25.738281 -64.234375 C 24.253906 -63.105469 22.996094 -61.800781 21.945312 -60.453125 C 20.902344 -59.039062 20.277344 -57.542969 19.941406 -55.878906 C 19.613281 -54.148438 19.628906 -52.390625 20.042969 -50.683594 C 20.390625 -48.96875 21.113281 -47.503906 22.074219 -46.269531 C 23.046875 -44.972656 24.246094 -44.039062 25.734375 -43.476562 C 27.15625 -42.910156 28.902344 -42.988281 30.851562 -43.636719 Z M 12.761719 -1.777344 C 14.910156 -1.910156 16.910156 -2.695312 18.765625 -4.074219 C 20.625 -5.453125 22.433594 -7.234375 24.195312 -9.410156 C 25.960938 -11.523438 27.554688 -13.953125 29.105469 -16.710938 C 30.667969 -19.40625 32.210938 -22.234375 33.738281 -25.195312 C 34.558594 -26.785156 35.476562 -28.65625 36.511719 -30.675781 C 37.546875 -32.699219 38.640625 -34.792969 39.847656 -37.039062 L 41.609375 -40.300781 C 42.996094 -42.769531 44.445312 -45.246094 45.898438 -47.726562 C 47.351562 -50.203125 48.769531 -52.40625 50.210938 -54.410156 C 51.597656 -56.339844 52.890625 -57.921875 54.222656 -59.167969 C 55.488281 -60.40625 56.613281 -61.152344 57.664062 -61.417969 C 56.382812 -62.476562 55.003906 -62.710938 53.585938 -62.132812 C 52.105469 -61.542969 50.488281 -60.394531 48.660156 -58.75 C 48.121094 -58.210938 47.417969 -57.3125 46.492188 -56.046875 C 45.578125 -54.71875 44.476562 -53.230469 43.339844 -51.46875 C 42.140625 -49.695312 40.820312 -47.773438 39.453125 -45.710938 C 38.085938 -43.652344 36.652344 -41.582031 35.214844 -39.507812 L 32.855469 -36.175781 C 31.804688 -34.828125 30.820312 -33.488281 29.820312 -32.285156 C 28.820312 -31.078125 27.878906 -29.949219 26.976562 -29.027344 C 25.726562 -27.65625 24.527344 -26.425781 23.308594 -25.328125 C 22.101562 -24.164062 20.867188 -23.199219 19.683594 -22.378906 C 18.441406 -21.480469 17.308594 -20.800781 16.21875 -20.328125 C 15.128906 -19.855469 14.144531 -19.597656 13.195312 -19.617188 C 12.257812 -19.566406 11.347656 -19.792969 10.550781 -20.234375 C 9.753906 -20.679688 9.113281 -21.476562 8.632812 -22.636719 C 8.09375 -23.71875 7.777344 -25.167969 7.621094 -26.972656 C 7.476562 -28.714844 7.601562 -30.960938 8.015625 -33.648438 C 6.222656 -32.820312 4.667969 -31.746094 3.480469 -30.382812 C 2.230469 -29.011719 1.199219 -27.53125 0.386719 -25.878906 C -0.480469 -24.148438 -1.074219 -22.382812 -1.386719 -20.519531 C -1.753906 -18.582031 -1.863281 -16.742188 -1.785156 -14.992188 C -1.6875 -13.113281 -1.324219 -11.261719 -0.710938 -9.582031 C -0.0976562 -7.898438 0.757812 -6.449219 1.988281 -5.25 C 3.160156 -3.972656 4.632812 -3.007812 6.394531 -2.414062 C 8.167969 -1.753906 10.289062 -1.542969 12.761719 -1.777344 Z M 12.761719 -1.777344 "/></g></g></g><g fill="#00c4cc" fill-opacity="1"><g transform="translate(104.761732, 75.401055)"><g><path d="M 19.269531 -41.054688 C 19.976562 -40.804688 20.945312 -41.195312 22.035156 -42.210938 C 22.519531 -42.675781 23.054688 -43.28125 23.503906 -44.011719 C 23.953125 -44.746094 24.40625 -45.476562 24.773438 -46.332031 C 25.140625 -47.191406 25.449219 -47.972656 25.683594 -48.8125 C 25.851562 -49.644531 26.027344 -50.410156 26.070312 -51.160156 C 26.097656 -52.582031 25.722656 -53.414062 25.015625 -53.667969 C 24.242188 -53.910156 23.34375 -53.527344 22.25 -52.511719 C 21.167969 -51.433594 20.257812 -50.035156 19.457031 -48.3125 L 19.449219 -48.378906 C 19.015625 -47.515625 18.714844 -46.667969 18.546875 -45.835938 C 18.3125 -44.996094 18.203125 -44.238281 18.210938 -43.628906 C 18.160156 -42.949219 18.230469 -42.347656 18.421875 -41.898438 C 18.613281 -41.449219 18.855469 -41.140625 19.269531 -41.054688 Z M 0.957031 -0.457031 C 2.074219 -0.1875 3.414062 -0.285156 5.113281 -0.765625 C 6.808594 -1.246094 8.585938 -2.210938 10.507812 -3.597656 C 12.375 -4.910156 14.324219 -6.636719 16.21875 -8.832031 C 18.121094 -10.960938 19.953125 -13.621094 21.605469 -16.664062 C 21.132812 -16.132812 20.53125 -15.519531 19.75 -14.746094 C 18.898438 -13.964844 18.039062 -13.25 17.105469 -12.59375 C 16.113281 -11.863281 15.171875 -11.273438 14.222656 -10.75 C 13.207031 -10.21875 12.367188 -9.910156 11.691406 -9.894531 C 10.625 -9.765625 9.976562 -10.089844 9.878906 -10.890625 C 9.789062 -11.621094 9.882812 -12.511719 10.292969 -13.578125 C 10.640625 -14.566406 11.066406 -15.5 11.617188 -16.511719 C 12.101562 -17.519531 12.496094 -18.175781 12.710938 -18.609375 L 23.269531 -38.238281 L 13.878906 -37.078125 L 0.71875 -13.339844 C -0.382812 -11.3125 -1.175781 -9.523438 -1.601562 -8.050781 C -2.019531 -6.511719 -2.207031 -5.273438 -2.082031 -4.273438 C -2.019531 -3.199219 -1.703125 -2.292969 -1.15625 -1.683594 C -0.605469 -1.074219 0.125 -0.625 0.957031 -0.457031 Z M 0.957031 -0.457031 "/></g></g></g><g fill="#00c4cc" fill-opacity="1"><g transform="translate(122.541869, 73.205058)"><g><path d="M -0.25 -0.375 C 1.132812 -0.140625 2.730469 -0.335938 4.546875 -0.96875 C 6.363281 -1.597656 8.195312 -2.636719 10.042969 -4.082031 C 11.894531 -5.527344 13.628906 -7.363281 15.3125 -9.597656 C 16.929688 -11.828125 18.367188 -14.4375 19.484375 -17.417969 C 19.078125 -16.894531 18.667969 -16.371094 18.25 -15.914062 C 17.835938 -15.457031 17.417969 -15 16.992188 -14.609375 C 16.027344 -13.675781 15.042969 -12.878906 14.042969 -12.214844 C 13.042969 -11.550781 12.160156 -11.035156 11.261719 -10.652344 C 10.304688 -10.199219 9.453125 -9.957031 8.703125 -10 C 7.964844 -9.976562 7.523438 -10.261719 7.324219 -10.777344 C 7.058594 -11.285156 6.984375 -11.882812 7.152344 -12.714844 C 7.328125 -13.480469 7.621094 -14.398438 8.039062 -15.394531 C 8.464844 -16.328125 8.890625 -17.257812 9.316406 -18.191406 C 9.75 -19.054688 10.25 -19.929688 10.699219 -20.660156 C 11.152344 -21.390625 11.484375 -21.972656 11.644531 -22.332031 L 11.585938 -22.257812 L 19.648438 -37.453125 C 20.074219 -37.84375 20.566406 -38.242188 21.117188 -38.714844 C 21.664062 -39.1875 22.214844 -39.660156 22.824219 -40.210938 C 23.375 -40.683594 23.925781 -41.15625 24.53125 -41.707031 C 25.148438 -42.1875 25.757812 -42.738281 26.425781 -43.359375 C 27.640625 -44.457031 28.917969 -45.628906 30.117188 -46.859375 C 31.316406 -48.089844 32.5 -49.453125 33.609375 -50.875 C 34.71875 -52.296875 35.695312 -53.699219 36.597656 -55.164062 C 37.429688 -56.621094 38.007812 -57.976562 38.382812 -59.304688 C 38.703125 -60.5625 38.753906 -61.785156 38.554688 -62.84375 C 38.289062 -63.894531 37.699219 -64.835938 36.652344 -65.652344 C 35.921875 -66.101562 35.066406 -66.46875 34.097656 -66.621094 C 33.132812 -66.773438 32.058594 -66.707031 30.945312 -66.433594 C 29.769531 -66.085938 28.6875 -65.546875 27.570312 -64.734375 C 26.453125 -63.917969 25.503906 -62.855469 24.652344 -61.53125 C 20.414062 -54.789062 16.507812 -48.085938 12.871094 -41.414062 C 9.230469 -34.746094 5.542969 -27.933594 1.804688 -20.980469 L -0.0820312 -17.636719 C -0.40625 -16.988281 -0.734375 -16.339844 -1.066406 -15.757812 C -1.402344 -15.175781 -1.660156 -14.535156 -1.925781 -13.960938 C -2.578125 -12.664062 -3.105469 -11.449219 -3.488281 -10.183594 C -3.941406 -8.910156 -4.191406 -7.664062 -4.253906 -6.507812 C -4.421875 -4.59375 -4.105469 -3.144531 -3.375 -2.152344 C -2.644531 -1.160156 -1.621094 -0.542969 -0.25 -0.375 Z M 19.851562 -40.722656 L 32.34375 -61.128906 C 32.675781 -61.710938 33.167969 -62.109375 33.683594 -62.308594 C 34.210938 -62.441406 34.617188 -62.425781 35.050781 -62.207031 C 35.347656 -61.972656 35.664062 -61.609375 35.863281 -61.089844 C 36.0625 -60.574219 36.078125 -59.902344 35.976562 -59.078125 C 35.808594 -58.246094 35.390625 -57.246094 34.851562 -56.164062 C 34.316406 -55.019531 33.457031 -53.761719 32.339844 -52.40625 C 31.40625 -51.210938 30.328125 -50.0625 29.195312 -48.839844 C 27.996094 -47.609375 26.851562 -46.457031 25.703125 -45.367188 C 24.484375 -44.269531 23.394531 -43.257812 22.34375 -42.449219 C 21.292969 -41.644531 20.484375 -41.070312 19.851562 -40.722656 Z M 19.851562 -40.722656 "/></g></g></g><g fill="#00c4cc" fill-opacity="1"><g transform="translate(137.525032, 71.35451)"><g><path d="M 21.171875 -3.222656 L 20.929688 -2.992188 C 22.792969 -3.222656 24.59375 -3.984375 26.386719 -5.355469 C 28.117188 -6.652344 29.808594 -8.28125 31.335938 -10.160156 C 32.804688 -11.960938 34.113281 -13.949219 35.347656 -15.996094 C 36.582031 -18.042969 37.558594 -19.988281 38.292969 -21.703125 C 38.179688 -21.550781 38.054688 -21.46875 37.871094 -21.3125 C 37.6875 -21.152344 37.511719 -20.929688 37.269531 -20.695312 C 36.734375 -20.089844 36.136719 -19.472656 35.46875 -18.851562 C 34.808594 -18.160156 34.085938 -17.460938 33.292969 -16.757812 C 31.601562 -15.128906 30.191406 -13.9375 28.925781 -13.242188 C 28.300781 -12.828125 27.777344 -12.695312 27.429688 -12.785156 C 27.078125 -12.878906 26.960938 -13.269531 27.082031 -13.960938 C 27.132812 -14.644531 27.597656 -15.78125 28.367188 -17.230469 L 40.429688 -40.558594 L 31.039062 -39.398438 L 27.53125 -32.746094 C 27.367188 -34.078125 27.035156 -35.117188 26.453125 -35.992188 C 25.882812 -36.800781 25.199219 -37.394531 24.335938 -37.828125 C 23.410156 -38.1875 22.378906 -38.328125 21.296875 -38.332031 C 20.222656 -38.265625 19.042969 -37.984375 17.875 -37.570312 C 16.976562 -37.1875 15.960938 -36.65625 14.910156 -35.851562 C 13.859375 -35.046875 12.820312 -34.175781 11.734375 -33.09375 C 10.652344 -32.011719 9.515625 -30.792969 8.398438 -29.4375 C 7.28125 -28.082031 6.230469 -26.734375 5.199219 -25.253906 C 3.929688 -23.476562 2.796875 -21.710938 1.800781 -19.898438 C 0.75 -18.011719 -0.109375 -16.214844 -0.835938 -14.433594 C -1.355469 -13.152344 -1.78125 -11.679688 -1.984375 -10.03125 C -2.183594 -8.386719 -2.203125 -6.894531 -1.898438 -5.511719 C -1.652344 -4.054688 -1.101562 -2.90625 -0.3125 -1.988281 C 0.476562 -1.074219 1.675781 -0.679688 3.339844 -0.886719 C 5.601562 -1.164062 7.945312 -1.925781 10.210938 -3.289062 C 11.285156 -3.894531 12.277344 -4.625 13.191406 -5.414062 C 14.109375 -6.207031 14.875 -7.113281 15.433594 -8.058594 C 15.492188 -6.511719 16.046875 -5.296875 17.109375 -4.34375 C 18.109375 -3.386719 19.441406 -3.007812 21.171875 -3.222656 Z M 9.003906 -10.308594 C 8.363281 -10.566406 7.898438 -11.050781 7.601562 -11.824219 C 7.300781 -12.597656 7.3125 -13.613281 7.554688 -14.929688 C 7.738281 -16.167969 8.234375 -17.648438 9.085938 -19.511719 C 9.945312 -21.308594 11.171875 -23.421875 12.765625 -25.851562 C 13.449219 -26.882812 14.132812 -27.914062 14.949219 -28.960938 C 15.699219 -30 16.535156 -30.914062 17.367188 -31.828125 C 18.144531 -32.667969 19 -33.382812 19.953125 -33.90625 C 20.835938 -34.421875 21.816406 -34.675781 22.882812 -34.808594 C 23.488281 -34.816406 23.980469 -34.671875 24.355469 -34.382812 C 24.671875 -34.015625 24.929688 -33.574219 25.136719 -32.992188 C 25.277344 -32.398438 25.359375 -31.734375 25.324219 -30.917969 C 25.289062 -30.101562 25.253906 -29.285156 25.09375 -28.386719 L 25.160156 -28.394531 L 19.421875 -17.949219 C 18.984375 -17.085938 18.359375 -16.128906 17.675781 -15.097656 C 16.925781 -14.058594 16.101562 -13.078125 15.191406 -12.222656 C 14.226562 -11.289062 13.226562 -10.625 12.191406 -10.226562 C 11.101562 -9.753906 10.019531 -9.757812 9.003906 -10.308594 Z M 9.003906 -10.308594 "/></g></g></g><g fill="#5ce1e6" fill-opacity="1"><g transform="translate(63.234457, 79.628523)"><g><path d="M 30.851562 -43.636719 C 31.902344 -43.902344 32.785156 -44.414062 33.652344 -45.0625 C 34.453125 -45.703125 35.09375 -46.527344 35.644531 -47.542969 C 36.621094 -49.488281 36.589844 -51.917969 35.695312 -54.78125 C 34.714844 -53.984375 33.738281 -53.660156 32.921875 -53.695312 C 32.042969 -53.722656 31.332031 -53.972656 30.785156 -54.582031 C 30.179688 -55.117188 29.746094 -55.875 29.5 -56.789062 C 29.25 -57.707031 29.203125 -58.644531 29.335938 -59.746094 C 29.6875 -61.816406 30.507812 -63.40625 31.867188 -64.453125 C 33.222656 -65.5 34.757812 -66.230469 36.472656 -66.574219 C 38.1875 -66.921875 39.984375 -67.144531 41.742188 -67.160156 C 43.4375 -67.097656 45.144531 -66.972656 46.792969 -66.769531 C 48.441406 -66.566406 50.03125 -66.289062 51.5625 -65.9375 C 52.261719 -65.753906 52.957031 -65.570312 53.589844 -65.378906 C 54.222656 -65.183594 54.847656 -65.058594 55.480469 -64.867188 C 56.046875 -64.664062 56.6875 -64.40625 57.316406 -64.214844 C 57.890625 -63.949219 58.597656 -63.695312 59.382812 -63.386719 C 60.097656 -63.070312 60.878906 -62.761719 61.660156 -62.453125 C 62.441406 -62.144531 63.214844 -61.898438 64.054688 -61.667969 C 65.679688 -61.121094 67.351562 -60.71875 69.074219 -60.460938 C 70.730469 -60.191406 72.351562 -60.1875 73.800781 -60.503906 C 75 -60.652344 76.101562 -61.058594 76.964844 -61.707031 C 77.839844 -62.285156 78.566406 -62.984375 79.132812 -63.867188 C 79.640625 -64.671875 80.011719 -65.53125 80.160156 -66.496094 C 80.320312 -67.394531 80.339844 -68.34375 80.222656 -69.273438 C 80.058594 -70.066406 79.757812 -70.839844 79.328125 -71.597656 C 78.894531 -72.355469 78.332031 -73.097656 77.640625 -73.757812 C 76.894531 -74.339844 76.078125 -74.917969 75.070312 -75.398438 C 74.074219 -75.816406 73.015625 -76.160156 71.777344 -76.34375 C 71.976562 -74.746094 71.988281 -73.53125 71.707031 -72.550781 C 71.421875 -71.570312 70.976562 -70.769531 70.371094 -70.222656 C 69.769531 -69.605469 69.011719 -69.175781 68.09375 -68.925781 C 67.179688 -68.679688 66.253906 -68.496094 65.308594 -68.515625 C 63.964844 -68.417969 62.683594 -68.394531 61.453125 -68.511719 C 60.164062 -68.554688 58.929688 -68.671875 57.757812 -68.867188 L 50.675781 -69.816406 C 48.347656 -70.070312 45.964844 -70.183594 43.601562 -70.160156 C 41.238281 -70.140625 38.707031 -69.828125 35.960938 -69.082031 C 34.128906 -68.585938 32.320312 -67.890625 30.527344 -67.058594 C 28.738281 -66.230469 27.164062 -65.292969 25.738281 -64.234375 C 24.253906 -63.105469 22.996094 -61.800781 21.945312 -60.453125 C 20.902344 -59.039062 20.277344 -57.542969 19.941406 -55.878906 C 19.613281 -54.148438 19.628906 -52.390625 20.042969 -50.683594 C 20.390625 -48.96875 21.113281 -47.503906 22.074219 -46.269531 C 23.046875 -44.972656 24.246094 -44.039062 25.734375 -43.476562 C 27.15625 -42.910156 28.902344 -42.988281 30.851562 -43.636719 Z M 12.761719 -1.777344 C 14.910156 -1.910156 16.910156 -2.695312 18.765625 -4.074219 C 20.625 -5.453125 22.433594 -7.234375 24.195312 -9.410156 C 25.960938 -11.523438 27.554688 -13.953125 29.105469 -16.710938 C 30.667969 -19.40625 32.210938 -22.234375 33.738281 -25.195312 C 34.558594 -26.785156 35.476562 -28.65625 36.511719 -30.675781 C 37.546875 -32.699219 38.640625 -34.792969 39.847656 -37.039062 L 41.609375 -40.300781 C 42.996094 -42.769531 44.445312 -45.246094 45.898438 -47.726562 C 47.351562 -50.203125 48.769531 -52.40625 50.210938 -54.410156 C 51.597656 -56.339844 52.890625 -57.921875 54.222656 -59.167969 C 55.488281 -60.40625 56.613281 -61.152344 57.664062 -61.417969 C 56.382812 -62.476562 55.003906 -62.710938 53.585938 -62.132812 C 52.105469 -61.542969 50.488281 -60.394531 48.660156 -58.75 C 48.121094 -58.210938 47.417969 -57.3125 46.492188 -56.046875 C 45.578125 -54.71875 44.476562 -53.230469 43.339844 -51.46875 C 42.140625 -49.695312 40.820312 -47.773438 39.453125 -45.710938 C 38.085938 -43.652344 36.652344 -41.582031 35.214844 -39.507812 L 32.855469 -36.175781 C 31.804688 -34.828125 30.820312 -33.488281 29.820312 -32.285156 C 28.820312 -31.078125 27.878906 -29.949219 26.976562 -29.027344 C 25.726562 -27.65625 24.527344 -26.425781 23.308594 -25.328125 C 22.101562 -24.164062 20.867188 -23.199219 19.683594 -22.378906 C 18.441406 -21.480469 17.308594 -20.800781 16.21875 -20.328125 C 15.128906 -19.855469 14.144531 -19.597656 13.195312 -19.617188 C 12.257812 -19.566406 11.347656 -19.792969 10.550781 -20.234375 C 9.753906 -20.679688 9.113281 -21.476562 8.632812 -22.636719 C 8.09375 -23.71875 7.777344 -25.167969 7.621094 -26.972656 C 7.476562 -28.714844 7.601562 -30.960938 8.015625 -33.648438 C 6.222656 -32.820312 4.667969 -31.746094 3.480469 -30.382812 C 2.230469 -29.011719 1.199219 -27.53125 0.386719 -25.878906 C -0.480469 -24.148438 -1.074219 -22.382812 -1.386719 -20.519531 C -1.753906 -18.582031 -1.863281 -16.742188 -1.785156 -14.992188 C -1.6875 -13.113281 -1.324219 -11.261719 -0.710938 -9.582031 C -0.0976562 -7.898438 0.757812 -6.449219 1.988281 -5.25 C 3.160156 -3.972656 4.632812 -3.007812 6.394531 -2.414062 C 8.167969 -1.753906 10.289062 -1.542969 12.761719 -1.777344 Z M 12.761719 -1.777344 "/></g></g></g><g fill="#5ce1e6" fill-opacity="1"><g transform="translate(106.253983, 74.315247)"><g><path d="M 19.269531 -41.054688 C 19.976562 -40.804688 20.945312 -41.195312 22.035156 -42.210938 C 22.519531 -42.675781 23.054688 -43.28125 23.503906 -44.011719 C 23.953125 -44.746094 24.40625 -45.476562 24.773438 -46.332031 C 25.140625 -47.191406 25.449219 -47.972656 25.683594 -48.8125 C 25.851562 -49.644531 26.027344 -50.410156 26.070312 -51.160156 C 26.097656 -52.582031 25.722656 -53.414062 25.015625 -53.667969 C 24.242188 -53.910156 23.34375 -53.527344 22.25 -52.511719 C 21.167969 -51.433594 20.257812 -50.035156 19.457031 -48.3125 L 19.449219 -48.378906 C 19.015625 -47.515625 18.714844 -46.667969 18.546875 -45.835938 C 18.3125 -44.996094 18.203125 -44.238281 18.210938 -43.628906 C 18.160156 -42.949219 18.230469 -42.347656 18.421875 -41.898438 C 18.613281 -41.449219 18.855469 -41.140625 19.269531 -41.054688 Z M 0.957031 -0.457031 C 2.074219 -0.1875 3.414062 -0.285156 5.113281 -0.765625 C 6.808594 -1.246094 8.585938 -2.210938 10.507812 -3.597656 C 12.375 -4.910156 14.324219 -6.636719 16.21875 -8.832031 C 18.121094 -10.960938 19.953125 -13.621094 21.605469 -16.664062 C 21.132812 -16.132812 20.53125 -15.519531 19.75 -14.746094 C 18.898438 -13.964844 18.039062 -13.25 17.105469 -12.59375 C 16.113281 -11.863281 15.171875 -11.273438 14.222656 -10.75 C 13.207031 -10.21875 12.367188 -9.910156 11.691406 -9.894531 C 10.625 -9.765625 9.976562 -10.089844 9.878906 -10.890625 C 9.789062 -11.621094 9.882812 -12.511719 10.292969 -13.578125 C 10.640625 -14.566406 11.066406 -15.5 11.617188 -16.511719 C 12.101562 -17.519531 12.496094 -18.175781 12.710938 -18.609375 L 23.269531 -38.238281 L 13.878906 -37.078125 L 0.71875 -13.339844 C -0.382812 -11.3125 -1.175781 -9.523438 -1.601562 -8.050781 C -2.019531 -6.511719 -2.207031 -5.273438 -2.082031 -4.273438 C -2.019531 -3.199219 -1.703125 -2.292969 -1.15625 -1.683594 C -0.605469 -1.074219 0.125 -0.625 0.957031 -0.457031 Z M 0.957031 -0.457031 "/></g></g></g><g fill="#5ce1e6" fill-opacity="1"><g transform="translate(124.03412, 72.11925)"><g><path d="M -0.25 -0.375 C 1.132812 -0.140625 2.730469 -0.335938 4.546875 -0.96875 C 6.363281 -1.597656 8.195312 -2.636719 10.042969 -4.082031 C 11.894531 -5.527344 13.628906 -7.363281 15.3125 -9.597656 C 16.929688 -11.828125 18.367188 -14.4375 19.484375 -17.417969 C 19.078125 -16.894531 18.667969 -16.371094 18.25 -15.914062 C 17.835938 -15.457031 17.417969 -15 16.992188 -14.609375 C 16.027344 -13.675781 15.042969 -12.878906 14.042969 -12.214844 C 13.042969 -11.550781 12.160156 -11.035156 11.261719 -10.652344 C 10.304688 -10.199219 9.453125 -9.957031 8.703125 -10 C 7.964844 -9.976562 7.523438 -10.261719 7.324219 -10.777344 C 7.058594 -11.285156 6.984375 -11.882812 7.152344 -12.714844 C 7.328125 -13.480469 7.621094 -14.398438 8.039062 -15.394531 C 8.464844 -16.328125 8.890625 -17.257812 9.316406 -18.191406 C 9.75 -19.054688 10.25 -19.929688 10.699219 -20.660156 C 11.152344 -21.390625 11.484375 -21.972656 11.644531 -22.332031 L 11.585938 -22.257812 L 19.648438 -37.453125 C 20.074219 -37.84375 20.566406 -38.242188 21.117188 -38.714844 C 21.664062 -39.1875 22.214844 -39.660156 22.824219 -40.210938 C 23.375 -40.683594 23.925781 -41.15625 24.53125 -41.707031 C 25.148438 -42.1875 25.757812 -42.738281 26.425781 -43.359375 C 27.640625 -44.457031 28.917969 -45.628906 30.117188 -46.859375 C 31.316406 -48.089844 32.5 -49.453125 33.609375 -50.875 C 34.71875 -52.296875 35.695312 -53.699219 36.597656 -55.164062 C 37.429688 -56.621094 38.007812 -57.976562 38.382812 -59.304688 C 38.703125 -60.5625 38.753906 -61.785156 38.554688 -62.84375 C 38.289062 -63.894531 37.699219 -64.835938 36.652344 -65.652344 C 35.921875 -66.101562 35.066406 -66.46875 34.097656 -66.621094 C 33.132812 -66.773438 32.058594 -66.707031 30.945312 -66.433594 C 29.769531 -66.085938 28.6875 -65.546875 27.570312 -64.734375 C 26.453125 -63.917969 25.503906 -62.855469 24.652344 -61.53125 C 20.414062 -54.789062 16.507812 -48.085938 12.871094 -41.414062 C 9.230469 -34.746094 5.542969 -27.933594 1.804688 -20.980469 L -0.0820312 -17.636719 C -0.40625 -16.988281 -0.734375 -16.339844 -1.066406 -15.757812 C -1.402344 -15.175781 -1.660156 -14.535156 -1.925781 -13.960938 C -2.578125 -12.664062 -3.105469 -11.449219 -3.488281 -10.183594 C -3.941406 -8.910156 -4.191406 -7.664062 -4.253906 -6.507812 C -4.421875 -4.59375 -4.105469 -3.144531 -3.375 -2.152344 C -2.644531 -1.160156 -1.621094 -0.542969 -0.25 -0.375 Z M 19.851562 -40.722656 L 32.34375 -61.128906 C 32.675781 -61.710938 33.167969 -62.109375 33.683594 -62.308594 C 34.210938 -62.441406 34.617188 -62.425781 35.050781 -62.207031 C 35.347656 -61.972656 35.664062 -61.609375 35.863281 -61.089844 C 36.0625 -60.574219 36.078125 -59.902344 35.976562 -59.078125 C 35.808594 -58.246094 35.390625 -57.246094 34.851562 -56.164062 C 34.316406 -55.019531 33.457031 -53.761719 32.339844 -52.40625 C 31.40625 -51.210938 30.328125 -50.0625 29.195312 -48.839844 C 27.996094 -47.609375 26.851562 -46.457031 25.703125 -45.367188 C 24.484375 -44.269531 23.394531 -43.257812 22.34375 -42.449219 C 21.292969 -41.644531 20.484375 -41.070312 19.851562 -40.722656 Z M 19.851562 -40.722656 "/></g></g></g><g fill="#5ce1e6" fill-opacity="1"><g transform="translate(139.017283, 70.268702)"><g><path d="M 21.171875 -3.222656 L 20.929688 -2.992188 C 22.792969 -3.222656 24.59375 -3.984375 26.386719 -5.355469 C 28.117188 -6.652344 29.808594 -8.28125 31.335938 -10.160156 C 32.804688 -11.960938 34.113281 -13.949219 35.347656 -15.996094 C 36.582031 -18.042969 37.558594 -19.988281 38.292969 -21.703125 C 38.179688 -21.550781 38.054688 -21.46875 37.871094 -21.3125 C 37.6875 -21.152344 37.511719 -20.929688 37.269531 -20.695312 C 36.734375 -20.089844 36.136719 -19.472656 35.46875 -18.851562 C 34.808594 -18.160156 34.085938 -17.460938 33.292969 -16.757812 C 31.601562 -15.128906 30.191406 -13.9375 28.925781 -13.242188 C 28.300781 -12.828125 27.777344 -12.695312 27.429688 -12.785156 C 27.078125 -12.878906 26.960938 -13.269531 27.082031 -13.960938 C 27.132812 -14.644531 27.597656 -15.78125 28.367188 -17.230469 L 40.429688 -40.558594 L 31.039062 -39.398438 L 27.53125 -32.746094 C 27.367188 -34.078125 27.035156 -35.117188 26.453125 -35.992188 C 25.882812 -36.800781 25.199219 -37.394531 24.335938 -37.828125 C 23.410156 -38.1875 22.378906 -38.328125 21.296875 -38.332031 C 20.222656 -38.265625 19.042969 -37.984375 17.875 -37.570312 C 16.976562 -37.1875 15.960938 -36.65625 14.910156 -35.851562 C 13.859375 -35.046875 12.820312 -34.175781 11.734375 -33.09375 C 10.652344 -32.011719 9.515625 -30.792969 8.398438 -29.4375 C 7.28125 -28.082031 6.230469 -26.734375 5.199219 -25.253906 C 3.929688 -23.476562 2.796875 -21.710938 1.800781 -19.898438 C 0.75 -18.011719 -0.109375 -16.214844 -0.835938 -14.433594 C -1.355469 -13.152344 -1.78125 -11.679688 -1.984375 -10.03125 C -2.183594 -8.386719 -2.203125 -6.894531 -1.898438 -5.511719 C -1.652344 -4.054688 -1.101562 -2.90625 -0.3125 -1.988281 C 0.476562 -1.074219 1.675781 -0.679688 3.339844 -0.886719 C 5.601562 -1.164062 7.945312 -1.925781 10.210938 -3.289062 C 11.285156 -3.894531 12.277344 -4.625 13.191406 -5.414062 C 14.109375 -6.207031 14.875 -7.113281 15.433594 -8.058594 C 15.492188 -6.511719 16.046875 -5.296875 17.109375 -4.34375 C 18.109375 -3.386719 19.441406 -3.007812 21.171875 -3.222656 Z M 9.003906 -10.308594 C 8.363281 -10.566406 7.898438 -11.050781 7.601562 -11.824219 C 7.300781 -12.597656 7.3125 -13.613281 7.554688 -14.929688 C 7.738281 -16.167969 8.234375 -17.648438 9.085938 -19.511719 C 9.945312 -21.308594 11.171875 -23.421875 12.765625 -25.851562 C 13.449219 -26.882812 14.132812 -27.914062 14.949219 -28.960938 C 15.699219 -30 16.535156 -30.914062 17.367188 -31.828125 C 18.144531 -32.667969 19 -33.382812 19.953125 -33.90625 C 20.835938 -34.421875 21.816406 -34.675781 22.882812 -34.808594 C 23.488281 -34.816406 23.980469 -34.671875 24.355469 -34.382812 C 24.671875 -34.015625 24.929688 -33.574219 25.136719 -32.992188 C 25.277344 -32.398438 25.359375 -31.734375 25.324219 -30.917969 C 25.289062 -30.101562 25.253906 -29.285156 25.09375 -28.386719 L 25.160156 -28.394531 L 19.421875 -17.949219 C 18.984375 -17.085938 18.359375 -16.128906 17.675781 -15.097656 C 16.925781 -14.058594 16.101562 -13.078125 15.191406 -12.222656 C 14.226562 -11.289062 13.226562 -10.625 12.191406 -10.226562 C 11.101562 -9.753906 10.019531 -9.757812 9.003906 -10.308594 Z M 9.003906 -10.308594 "/></g></g></g><g fill="#ff914d" fill-opacity="1"><g transform="translate(71.363971, 128.3012)"><g><path d="M 17.441406 -2.222656 C 21.046875 -2.597656 24.152344 -3.726562 26.761719 -5.605469 C 29.300781 -7.472656 31.519531 -9.777344 33.335938 -12.570312 C 35.15625 -15.363281 36.601562 -18.449219 37.804688 -21.84375 C 39.007812 -25.238281 39.996094 -28.742188 40.90625 -32.300781 C 41.761719 -35.789062 42.550781 -39.265625 43.285156 -42.601562 C 44.023438 -45.9375 44.792969 -49.007812 45.679688 -51.6875 C 46.566406 -54.367188 47.585938 -56.519531 48.71875 -58.285156 C 49.863281 -59.980469 51.296875 -60.96875 53.09375 -61.191406 C 54.09375 -61.316406 54.875 -61.003906 55.429688 -60.332031 C 55.929688 -59.582031 56.238281 -58.738281 56.300781 -57.664062 C 56.300781 -56.582031 56.089844 -55.542969 55.554688 -54.394531 C 55.019531 -53.246094 54.261719 -52.273438 53.277344 -51.476562 C 54.636719 -51.441406 55.894531 -51.664062 57.042969 -52.210938 C 58.191406 -52.761719 59.257812 -53.433594 60.09375 -54.347656 C 60.933594 -55.195312 61.625 -56.160156 62.160156 -57.308594 C 62.628906 -58.445312 62.894531 -59.5625 62.890625 -60.710938 C 62.882812 -61.859375 62.542969 -62.964844 61.996094 -64.117188 C 61.390625 -65.191406 60.460938 -66.15625 59.136719 -67.007812 C 57.90625 -67.667969 56.515625 -67.96875 54.96875 -67.914062 C 53.417969 -67.859375 51.855469 -67.394531 50.253906 -66.65625 C 48.597656 -65.84375 47.046875 -64.703125 45.53125 -63.300781 C 43.949219 -61.886719 42.605469 -60.167969 41.496094 -58.203125 C 40.160156 -55.875 38.925781 -53.289062 37.929688 -50.394531 C 36.933594 -47.496094 35.949219 -44.535156 34.96875 -41.507812 C 33.992188 -38.480469 33.003906 -35.519531 32 -32.6875 C 31 -29.859375 29.761719 -27.273438 28.34375 -25.070312 C 26.925781 -22.867188 25.257812 -21.039062 23.394531 -19.726562 C 21.460938 -18.40625 19.171875 -17.785156 16.523438 -17.863281 C 14.824219 -17.921875 13.542969 -18.441406 12.613281 -19.410156 C 11.683594 -20.375 10.984375 -21.640625 10.664062 -23.15625 C 10.28125 -24.597656 10.152344 -26.203125 10.269531 -27.976562 C 10.332031 -29.675781 10.609375 -31.265625 11.027344 -32.804688 C 11.453125 -34.277344 12.039062 -35.566406 12.722656 -36.597656 C 13.40625 -37.628906 14.140625 -38.257812 14.929688 -38.425781 C 13 -39.269531 11.195312 -39.652344 9.523438 -39.515625 C 7.78125 -39.367188 6.226562 -38.835938 4.84375 -37.988281 C 3.390625 -37.132812 2.117188 -35.960938 1.082031 -34.484375 C -0.0195312 -32.996094 -0.894531 -31.332031 -1.480469 -29.5 C -2.132812 -27.660156 -2.566406 -25.714844 -2.71875 -23.667969 C -2.941406 -21.613281 -2.824219 -19.597656 -2.445312 -17.617188 C -1.949219 -14.703125 -1.039062 -12.246094 0.222656 -10.238281 C 1.425781 -8.15625 2.988281 -6.453125 4.769531 -5.1875 C 6.546875 -3.917969 8.484375 -3.007812 10.640625 -2.53125 C 12.804688 -1.988281 15.042969 -1.925781 17.441406 -2.222656 Z M 17.441406 -2.222656 "/></g></g></g><g fill="#ff914d" fill-opacity="1"><g transform="translate(117.446853, 122.609574)"><g><path d="M -7.234375 1.097656 L 2.554688 -0.113281 C 3.046875 -1.050781 3.539062 -1.992188 4.089844 -3.007812 C 4.574219 -4.011719 5.066406 -4.953125 5.617188 -5.96875 C 6.109375 -6.90625 6.605469 -7.847656 7.097656 -8.789062 C 7.597656 -9.660156 8.089844 -10.601562 8.648438 -11.546875 C 9.640625 -13.363281 10.769531 -15.191406 11.894531 -17.019531 C 13.027344 -18.785156 14.222656 -20.621094 15.613281 -22.484375 C 16.433594 -23.53125 17.242188 -24.644531 18.117188 -25.769531 C 18.933594 -26.816406 19.816406 -27.871094 20.652344 -28.785156 C 21.492188 -29.632812 22.285156 -30.339844 23.027344 -30.90625 C 23.769531 -31.46875 24.410156 -31.75 24.941406 -31.816406 C 25.285156 -31.792969 25.582031 -31.558594 25.90625 -31.125 C 26.105469 -30.609375 25.9375 -29.777344 25.476562 -28.570312 C 24.910156 -27.148438 24.34375 -25.726562 23.824219 -24.445312 C 23.238281 -23.15625 22.65625 -21.867188 22.0625 -20.644531 C 21.410156 -19.34375 20.820312 -18.121094 20.226562 -16.898438 C 19.640625 -15.609375 19.046875 -14.386719 18.523438 -13.171875 C 18.097656 -12.242188 17.695312 -11.109375 17.3125 -9.847656 C 16.925781 -8.582031 16.808594 -7.351562 16.871094 -6.277344 C 16.878906 -5.128906 17.261719 -4.226562 17.957031 -3.503906 C 18.589844 -2.769531 19.765625 -2.578125 21.496094 -2.789062 C 22.960938 -2.972656 24.433594 -3.625 25.902344 -4.890625 C 27.367188 -6.152344 28.675781 -7.597656 29.960938 -9.246094 C 31.179688 -10.882812 32.1875 -12.5625 32.992188 -14.285156 C 33.792969 -16.007812 34.292969 -17.421875 34.417969 -18.585938 C 34.195312 -18.21875 34.027344 -17.929688 33.859375 -17.636719 C 33.628906 -17.339844 33.46875 -16.980469 33.300781 -16.691406 C 32.84375 -16.023438 32.308594 -15.417969 31.835938 -14.886719 C 31.359375 -14.355469 30.800781 -13.945312 30.234375 -13.605469 C 29.609375 -13.191406 29.027344 -12.984375 28.484375 -12.984375 C 27.886719 -12.910156 27.519531 -13.136719 27.328125 -13.585938 C 27.148438 -13.96875 27.082031 -14.5 27.199219 -15.191406 C 27.25 -15.875 27.492188 -16.648438 27.851562 -17.570312 C 28.152344 -18.421875 28.519531 -19.277344 28.894531 -20.066406 C 29.203125 -20.847656 29.695312 -21.789062 30.363281 -22.953125 C 30.640625 -23.460938 30.90625 -24.035156 31.242188 -24.617188 C 31.574219 -25.199219 31.84375 -25.773438 32.160156 -26.488281 C 32.753906 -27.710938 33.335938 -29 33.839844 -30.414062 C 34.347656 -31.761719 34.65625 -33.085938 34.84375 -34.324219 C 34.96875 -35.488281 34.777344 -36.480469 34.398438 -37.378906 C 34.015625 -38.28125 33.199219 -38.855469 32.070312 -39.257812 C 30.953125 -39.523438 29.824219 -39.382812 28.554688 -38.6875 C 27.289062 -37.988281 25.992188 -37.019531 24.648438 -35.839844 C 23.316406 -34.589844 21.9375 -33.136719 20.640625 -31.625 C 19.269531 -30.101562 18.039062 -28.597656 16.921875 -27.242188 L 21.46875 -35.308594 C 22.183594 -36.074219 23.277344 -37.089844 24.628906 -38.203125 C 25.308594 -38.691406 25.984375 -39.25 26.71875 -39.878906 C 27.460938 -40.445312 28.195312 -41.078125 28.984375 -41.78125 C 30.519531 -43.054688 32.101562 -44.464844 33.667969 -46.011719 C 35.238281 -47.558594 36.730469 -49.164062 38.078125 -50.816406 C 39.1875 -52.238281 40.164062 -53.644531 41.066406 -55.109375 C 41.898438 -56.5625 42.476562 -57.917969 42.851562 -59.25 C 43.171875 -60.507812 43.222656 -61.730469 43.023438 -62.789062 C 42.761719 -63.835938 42.171875 -64.777344 41.121094 -65.59375 C 40.390625 -66.046875 39.535156 -66.414062 38.570312 -66.5625 C 37.605469 -66.714844 36.53125 -66.652344 35.414062 -66.378906 C 34.238281 -66.03125 33.15625 -65.492188 32.039062 -64.675781 C 30.925781 -63.863281 29.972656 -62.796875 29.121094 -61.476562 C 26.359375 -57.011719 23.433594 -52.253906 20.394531 -47.28125 C 17.367188 -42.242188 14.230469 -36.984375 11.109375 -31.597656 C 7.929688 -26.132812 4.816406 -20.675781 1.710938 -15.15625 C -1.390625 -9.632812 -4.378906 -4.257812 -7.234375 1.097656 Z M 23.714844 -40.660156 L 36.738281 -61.132812 C 37.136719 -61.722656 37.628906 -62.121094 38.144531 -62.320312 C 38.671875 -62.453125 39.078125 -62.433594 39.511719 -62.21875 C 39.8125 -61.984375 40.125 -61.617188 40.324219 -61.101562 C 40.523438 -60.585938 40.539062 -59.910156 40.4375 -59.085938 C 40.269531 -58.253906 39.855469 -57.257812 39.3125 -56.175781 C 38.777344 -55.027344 37.917969 -53.773438 36.800781 -52.417969 C 35.867188 -51.21875 34.722656 -50.066406 33.523438 -48.835938 C 32.257812 -47.597656 31.046875 -46.433594 29.832031 -45.335938 C 28.546875 -44.230469 27.390625 -43.207031 26.273438 -42.394531 C 25.15625 -41.582031 24.347656 -41.007812 23.714844 -40.660156 Z M 23.714844 -40.660156 "/></g></g></g><g fill="#ff914d" fill-opacity="1"><g transform="translate(147.94658, 118.842599)"><g><path d="M 2.339844 -0.222656 C 3.710938 -0.0546875 5.234375 -0.308594 6.910156 -0.988281 C 8.515625 -1.660156 10.160156 -2.605469 11.757812 -3.886719 C 13.300781 -5.089844 14.75 -6.488281 16.101562 -8.140625 C 17.394531 -9.722656 18.46875 -11.410156 19.320312 -13.273438 C 19.9375 -12.671875 20.578125 -12.414062 21.308594 -12.503906 C 22.042969 -12.59375 22.75 -12.882812 23.425781 -13.441406 C 24.109375 -13.929688 24.773438 -14.554688 25.410156 -15.445312 C 25.984375 -16.257812 26.617188 -17.148438 27.179688 -18.097656 C 27.679688 -18.96875 28.121094 -19.769531 28.488281 -20.625 C 28.789062 -21.472656 29.039062 -22.179688 29.175781 -22.738281 L 29.089844 -22.863281 C 28.972656 -22.714844 28.855469 -22.5625 28.625 -22.265625 C 28.390625 -21.964844 28.097656 -21.589844 27.75 -21.140625 C 26.914062 -20.226562 26.082031 -19.3125 25.230469 -18.53125 C 24.390625 -17.683594 23.582031 -17.113281 22.882812 -16.753906 C 22.113281 -16.390625 21.683594 -16.605469 21.5 -17.53125 C 21.765625 -18.105469 22.035156 -18.679688 22.234375 -19.246094 C 22.4375 -19.808594 22.570312 -20.367188 22.769531 -20.933594 C 23.375 -23.171875 23.683594 -25.035156 23.636719 -26.515625 C 23.578125 -28.066406 23.207031 -28.898438 22.523438 -28.949219 C 21.707031 -28.984375 20.882812 -28.542969 20.183594 -27.644531 C 19.425781 -26.671875 18.824219 -25.515625 18.378906 -24.175781 C 17.761719 -22.613281 17.425781 -20.949219 17.367188 -19.25 C 17.246094 -17.480469 17.484375 -16.089844 18.027344 -15.003906 C 16.332031 -13.375 14.785156 -12.238281 13.382812 -11.523438 C 11.984375 -10.8125 10.753906 -10.386719 9.671875 -10.390625 C 8.664062 -10.332031 7.824219 -10.566406 7.207031 -11.167969 C 6.59375 -11.769531 6.21875 -12.601562 6.078125 -13.734375 C 5.882812 -14.789062 5.984375 -16.15625 6.402344 -17.695312 C 6.753906 -19.226562 7.472656 -21.074219 8.507812 -23.09375 C 9.425781 -24.964844 10.617188 -26.800781 12.152344 -28.613281 C 13.621094 -30.417969 15.371094 -32.121094 17.335938 -33.71875 C 18.886719 -34.855469 20.203125 -35.152344 21.265625 -34.746094 C 21.773438 -34.46875 22.164062 -34.042969 22.382812 -33.394531 C 22.597656 -32.746094 22.6875 -32.011719 22.535156 -31.046875 C 23.851562 -31.886719 24.609375 -32.859375 24.753906 -33.890625 C 24.90625 -34.855469 24.730469 -35.714844 24.234375 -36.460938 C 23.902344 -36.960938 23.453125 -37.3125 22.945312 -37.589844 C 22.371094 -37.855469 21.8125 -37.988281 21.214844 -37.914062 C 19.480469 -37.703125 17.792969 -37.15625 16.007812 -36.257812 C 14.234375 -35.296875 12.484375 -34.132812 10.769531 -32.703125 C 8.992188 -31.199219 7.300781 -29.570312 5.699219 -27.75 C 4.101562 -25.929688 2.648438 -23.992188 1.414062 -21.945312 C 0.847656 -21.066406 0.238281 -19.976562 -0.289062 -18.761719 C -0.875 -17.472656 -1.390625 -16.191406 -1.835938 -14.851562 C -2.335938 -13.4375 -2.695312 -11.972656 -2.929688 -10.589844 C -3.15625 -9.144531 -3.257812 -7.777344 -3.179688 -6.570312 C -3.046875 -4.425781 -2.441406 -2.808594 -1.3125 -1.867188 C -0.25 -0.914062 0.972656 -0.324219 2.339844 -0.222656 Z M 2.339844 -0.222656 "/></g></g></g><g fill="#ff914d" fill-opacity="1"><g transform="translate(172.119803, 115.857002)"><g><path d="M 6.5625 -25.152344 L -23.238281 33.027344 C -22.304688 32.910156 -21.53125 32.613281 -20.796875 31.980469 L -18.648438 30.226562 C -17.90625 29.664062 -17.023438 29.148438 -16.007812 28.617188 C -14.980469 28.152344 -13.726562 27.929688 -12.109375 27.867188 L -11.515625 26.644531 L 4.46875 -5.421875 C 5.597656 -3.9375 6.878906 -2.878906 8.226562 -2.367188 C 9.515625 -1.785156 10.890625 -1.617188 12.347656 -1.863281 C 13.746094 -2.035156 15.167969 -2.550781 16.550781 -3.398438 C 17.933594 -4.242188 19.292969 -5.289062 20.617188 -6.605469 C 22.320312 -8.164062 23.910156 -10.054688 25.40625 -12.199219 C 26.898438 -14.34375 28.242188 -16.605469 29.441406 -18.917969 C 30.644531 -21.230469 31.65625 -23.449219 32.457031 -25.714844 C 33.261719 -27.976562 33.8125 -30.074219 34.113281 -32.003906 C 34.351562 -33.925781 34.292969 -35.472656 33.996094 -36.789062 C 33.632812 -38.097656 32.925781 -38.890625 31.863281 -39.296875 C 31.164062 -39.480469 30.28125 -39.507812 29.28125 -39.386719 C 28.28125 -39.261719 27.117188 -38.847656 25.84375 -38.214844 C 24.507812 -37.511719 23 -36.582031 21.335938 -35.292969 C 19.601562 -33.996094 17.71875 -32.277344 15.667969 -30.265625 C 16.054688 -32.613281 15.832031 -34.410156 14.941406 -35.585938 C 13.996094 -36.6875 12.914062 -37.230469 11.566406 -37.195312 C 10.492188 -37.132812 9.453125 -36.800781 8.367188 -36.261719 C 7.292969 -35.65625 6.445312 -34.875 5.75 -33.910156 C 6.648438 -33.75 7.300781 -33.425781 7.640625 -32.859375 C 7.988281 -32.226562 8.203125 -31.574219 8.167969 -30.761719 C 8.144531 -29.878906 7.917969 -28.972656 7.632812 -27.988281 C 7.347656 -27.007812 6.996094 -26.015625 6.628906 -25.160156 Z M 14.292969 -11.300781 C 13.160156 -11.160156 12.320312 -11.394531 11.769531 -12 C 11.230469 -12.542969 10.875 -13.242188 10.691406 -14.167969 C 10.453125 -15.015625 10.46875 -15.964844 10.679688 -17.003906 C 10.820312 -18.039062 11.179688 -18.960938 11.617188 -19.824219 L 11.683594 -19.835938 C 12.324219 -21.199219 13.21875 -22.730469 14.359375 -24.425781 C 15.511719 -26.054688 16.730469 -27.691406 18.089844 -29.28125 C 19.390625 -30.792969 20.78125 -32.113281 22.246094 -33.378906 C 23.722656 -34.574219 25.171875 -35.429688 26.589844 -36.011719 C 27.621094 -36.40625 28.4375 -36.375 29.027344 -35.972656 C 29.617188 -35.574219 29.898438 -34.929688 30.015625 -34 C 30.070312 -32.992188 29.945312 -31.828125 29.632812 -30.503906 C 29.332031 -29.113281 28.898438 -27.707031 28.273438 -26.210938 C 27.738281 -25.0625 26.96875 -23.617188 25.953125 -22.003906 C 24.875 -20.3125 23.65625 -18.675781 22.355469 -17.164062 C 20.996094 -15.574219 19.605469 -14.253906 18.1875 -13.132812 C 16.773438 -12.011719 15.5 -11.378906 14.292969 -11.300781 Z M 14.292969 -11.300781 "/></g></g></g><g fill="#ffffff" fill-opacity="1"><g transform="translate(72.856221, 127.215392)"><g><path d="M 17.441406 -2.222656 C 21.046875 -2.597656 24.152344 -3.726562 26.761719 -5.605469 C 29.300781 -7.472656 31.519531 -9.777344 33.335938 -12.570312 C 35.15625 -15.363281 36.601562 -18.449219 37.804688 -21.84375 C 39.007812 -25.238281 39.996094 -28.742188 40.90625 -32.300781 C 41.761719 -35.789062 42.550781 -39.265625 43.285156 -42.601562 C 44.023438 -45.9375 44.792969 -49.007812 45.679688 -51.6875 C 46.566406 -54.367188 47.585938 -56.519531 48.71875 -58.285156 C 49.863281 -59.980469 51.296875 -60.96875 53.09375 -61.191406 C 54.09375 -61.316406 54.875 -61.003906 55.429688 -60.332031 C 55.929688 -59.582031 56.238281 -58.738281 56.300781 -57.664062 C 56.300781 -56.582031 56.089844 -55.542969 55.554688 -54.394531 C 55.019531 -53.246094 54.261719 -52.273438 53.277344 -51.476562 C 54.636719 -51.441406 55.894531 -51.664062 57.042969 -52.210938 C 58.191406 -52.761719 59.257812 -53.433594 60.09375 -54.347656 C 60.933594 -55.195312 61.625 -56.160156 62.160156 -57.308594 C 62.628906 -58.445312 62.894531 -59.5625 62.890625 -60.710938 C 62.882812 -61.859375 62.542969 -62.964844 61.996094 -64.117188 C 61.390625 -65.191406 60.460938 -66.15625 59.136719 -67.007812 C 57.90625 -67.667969 56.515625 -67.96875 54.96875 -67.914062 C 53.417969 -67.859375 51.855469 -67.394531 50.253906 -66.65625 C 48.597656 -65.84375 47.046875 -64.703125 45.53125 -63.300781 C 43.949219 -61.886719 42.605469 -60.167969 41.496094 -58.203125 C 40.160156 -55.875 38.925781 -53.289062 37.929688 -50.394531 C 36.933594 -47.496094 35.949219 -44.535156 34.96875 -41.507812 C 33.992188 -38.480469 33.003906 -35.519531 32 -32.6875 C 31 -29.859375 29.761719 -27.273438 28.34375 -25.070312 C 26.925781 -22.867188 25.257812 -21.039062 23.394531 -19.726562 C 21.460938 -18.40625 19.171875 -17.785156 16.523438 -17.863281 C 14.824219 -17.921875 13.542969 -18.441406 12.613281 -19.410156 C 11.683594 -20.375 10.984375 -21.640625 10.664062 -23.15625 C 10.28125 -24.597656 10.152344 -26.203125 10.269531 -27.976562 C 10.332031 -29.675781 10.609375 -31.265625 11.027344 -32.804688 C 11.453125 -34.277344 12.039062 -35.566406 12.722656 -36.597656 C 13.40625 -37.628906 14.140625 -38.257812 14.929688 -38.425781 C 13 -39.269531 11.195312 -39.652344 9.523438 -39.515625 C 7.78125 -39.367188 6.226562 -38.835938 4.84375 -37.988281 C 3.390625 -37.132812 2.117188 -35.960938 1.082031 -34.484375 C -0.0195312 -32.996094 -0.894531 -31.332031 -1.480469 -29.5 C -2.132812 -27.660156 -2.566406 -25.714844 -2.71875 -23.667969 C -2.941406 -21.613281 -2.824219 -19.597656 -2.445312 -17.617188 C -1.949219 -14.703125 -1.039062 -12.246094 0.222656 -10.238281 C 1.425781 -8.15625 2.988281 -6.453125 4.769531 -5.1875 C 6.546875 -3.917969 8.484375 -3.007812 10.640625 -2.53125 C 12.804688 -1.988281 15.042969 -1.925781 17.441406 -2.222656 Z M 17.441406 -2.222656 "/></g></g></g><g fill="#ffffff" fill-opacity="1"><g transform="translate(118.939104, 121.523766)"><g><path d="M -7.234375 1.097656 L 2.554688 -0.113281 C 3.046875 -1.050781 3.539062 -1.992188 4.089844 -3.007812 C 4.574219 -4.011719 5.066406 -4.953125 5.617188 -5.96875 C 6.109375 -6.90625 6.605469 -7.847656 7.097656 -8.789062 C 7.597656 -9.660156 8.089844 -10.601562 8.648438 -11.546875 C 9.640625 -13.363281 10.769531 -15.191406 11.894531 -17.019531 C 13.027344 -18.785156 14.222656 -20.621094 15.613281 -22.484375 C 16.433594 -23.53125 17.242188 -24.644531 18.117188 -25.769531 C 18.933594 -26.816406 19.816406 -27.871094 20.652344 -28.785156 C 21.492188 -29.632812 22.285156 -30.339844 23.027344 -30.90625 C 23.769531 -31.46875 24.410156 -31.75 24.941406 -31.816406 C 25.285156 -31.792969 25.582031 -31.558594 25.90625 -31.125 C 26.105469 -30.609375 25.9375 -29.777344 25.476562 -28.570312 C 24.910156 -27.148438 24.34375 -25.726562 23.824219 -24.445312 C 23.238281 -23.15625 22.65625 -21.867188 22.0625 -20.644531 C 21.410156 -19.34375 20.820312 -18.121094 20.226562 -16.898438 C 19.640625 -15.609375 19.046875 -14.386719 18.523438 -13.171875 C 18.097656 -12.242188 17.695312 -11.109375 17.3125 -9.847656 C 16.925781 -8.582031 16.808594 -7.351562 16.871094 -6.277344 C 16.878906 -5.128906 17.261719 -4.226562 17.957031 -3.503906 C 18.589844 -2.769531 19.765625 -2.578125 21.496094 -2.789062 C 22.960938 -2.972656 24.433594 -3.625 25.902344 -4.890625 C 27.367188 -6.152344 28.675781 -7.597656 29.960938 -9.246094 C 31.179688 -10.882812 32.1875 -12.5625 32.992188 -14.285156 C 33.792969 -16.007812 34.292969 -17.421875 34.417969 -18.585938 C 34.195312 -18.21875 34.027344 -17.929688 33.859375 -17.636719 C 33.628906 -17.339844 33.46875 -16.980469 33.300781 -16.691406 C 32.84375 -16.023438 32.308594 -15.417969 31.835938 -14.886719 C 31.359375 -14.355469 30.800781 -13.945312 30.234375 -13.605469 C 29.609375 -13.191406 29.027344 -12.984375 28.484375 -12.984375 C 27.886719 -12.910156 27.519531 -13.136719 27.328125 -13.585938 C 27.148438 -13.96875 27.082031 -14.5 27.199219 -15.191406 C 27.25 -15.875 27.492188 -16.648438 27.851562 -17.570312 C 28.152344 -18.421875 28.519531 -19.277344 28.894531 -20.066406 C 29.203125 -20.847656 29.695312 -21.789062 30.363281 -22.953125 C 30.640625 -23.460938 30.90625 -24.035156 31.242188 -24.617188 C 31.574219 -25.199219 31.84375 -25.773438 32.160156 -26.488281 C 32.753906 -27.710938 33.335938 -29 33.839844 -30.414062 C 34.347656 -31.761719 34.65625 -33.085938 34.84375 -34.324219 C 34.96875 -35.488281 34.777344 -36.480469 34.398438 -37.378906 C 34.015625 -38.28125 33.199219 -38.855469 32.070312 -39.257812 C 30.953125 -39.523438 29.824219 -39.382812 28.554688 -38.6875 C 27.289062 -37.988281 25.992188 -37.019531 24.648438 -35.839844 C 23.316406 -34.589844 21.9375 -33.136719 20.640625 -31.625 C 19.269531 -30.101562 18.039062 -28.597656 16.921875 -27.242188 L 21.46875 -35.308594 C 22.183594 -36.074219 23.277344 -37.089844 24.628906 -38.203125 C 25.308594 -38.691406 25.984375 -39.25 26.71875 -39.878906 C 27.460938 -40.445312 28.195312 -41.078125 28.984375 -41.78125 C 30.519531 -43.054688 32.101562 -44.464844 33.667969 -46.011719 C 35.238281 -47.558594 36.730469 -49.164062 38.078125 -50.816406 C 39.1875 -52.238281 40.164062 -53.644531 41.066406 -55.109375 C 41.898438 -56.5625 42.476562 -57.917969 42.851562 -59.25 C 43.171875 -60.507812 43.222656 -61.730469 43.023438 -62.789062 C 42.761719 -63.835938 42.171875 -64.777344 41.121094 -65.59375 C 40.390625 -66.046875 39.535156 -66.414062 38.570312 -66.5625 C 37.605469 -66.714844 36.53125 -66.652344 35.414062 -66.378906 C 34.238281 -66.03125 33.15625 -65.492188 32.039062 -64.675781 C 30.925781 -63.863281 29.972656 -62.796875 29.121094 -61.476562 C 26.359375 -57.011719 23.433594 -52.253906 20.394531 -47.28125 C 17.367188 -42.242188 14.230469 -36.984375 11.109375 -31.597656 C 7.929688 -26.132812 4.816406 -20.675781 1.710938 -15.15625 C -1.390625 -9.632812 -4.378906 -4.257812 -7.234375 1.097656 Z M 23.714844 -40.660156 L 36.738281 -61.132812 C 37.136719 -61.722656 37.628906 -62.121094 38.144531 -62.320312 C 38.671875 -62.453125 39.078125 -62.433594 39.511719 -62.21875 C 39.8125 -61.984375 40.125 -61.617188 40.324219 -61.101562 C 40.523438 -60.585938 40.539062 -59.910156 40.4375 -59.085938 C 40.269531 -58.253906 39.855469 -57.257812 39.3125 -56.175781 C 38.777344 -55.027344 37.917969 -53.773438 36.800781 -52.417969 C 35.867188 -51.21875 34.722656 -50.066406 33.523438 -48.835938 C 32.257812 -47.597656 31.046875 -46.433594 29.832031 -45.335938 C 28.546875 -44.230469 27.390625 -43.207031 26.273438 -42.394531 C 25.15625 -41.582031 24.347656 -41.007812 23.714844 -40.660156 Z M 23.714844 -40.660156 "/></g></g></g><g fill="#ffffff" fill-opacity="1"><g transform="translate(149.438831, 117.756791)"><g><path d="M 2.339844 -0.222656 C 3.710938 -0.0546875 5.234375 -0.308594 6.910156 -0.988281 C 8.515625 -1.660156 10.160156 -2.605469 11.757812 -3.886719 C 13.300781 -5.089844 14.75 -6.488281 16.101562 -8.140625 C 17.394531 -9.722656 18.46875 -11.410156 19.320312 -13.273438 C 19.9375 -12.671875 20.578125 -12.414062 21.308594 -12.503906 C 22.042969 -12.59375 22.75 -12.882812 23.425781 -13.441406 C 24.109375 -13.929688 24.773438 -14.554688 25.410156 -15.445312 C 25.984375 -16.257812 26.617188 -17.148438 27.179688 -18.097656 C 27.679688 -18.96875 28.121094 -19.769531 28.488281 -20.625 C 28.789062 -21.472656 29.039062 -22.179688 29.175781 -22.738281 L 29.089844 -22.863281 C 28.972656 -22.714844 28.855469 -22.5625 28.625 -22.265625 C 28.390625 -21.964844 28.097656 -21.589844 27.75 -21.140625 C 26.914062 -20.226562 26.082031 -19.3125 25.230469 -18.53125 C 24.390625 -17.683594 23.582031 -17.113281 22.882812 -16.753906 C 22.113281 -16.390625 21.683594 -16.605469 21.5 -17.53125 C 21.765625 -18.105469 22.035156 -18.679688 22.234375 -19.246094 C 22.4375 -19.808594 22.570312 -20.367188 22.769531 -20.933594 C 23.375 -23.171875 23.683594 -25.035156 23.636719 -26.515625 C 23.578125 -28.066406 23.207031 -28.898438 22.523438 -28.949219 C 21.707031 -28.984375 20.882812 -28.542969 20.183594 -27.644531 C 19.425781 -26.671875 18.824219 -25.515625 18.378906 -24.175781 C 17.761719 -22.613281 17.425781 -20.949219 17.367188 -19.25 C 17.246094 -17.480469 17.484375 -16.089844 18.027344 -15.003906 C 16.332031 -13.375 14.785156 -12.238281 13.382812 -11.523438 C 11.984375 -10.8125 10.753906 -10.386719 9.671875 -10.390625 C 8.664062 -10.332031 7.824219 -10.566406 7.207031 -11.167969 C 6.59375 -11.769531 6.21875 -12.601562 6.078125 -13.734375 C 5.882812 -14.789062 5.984375 -16.15625 6.402344 -17.695312 C 6.753906 -19.226562 7.472656 -21.074219 8.507812 -23.09375 C 9.425781 -24.964844 10.617188 -26.800781 12.152344 -28.613281 C 13.621094 -30.417969 15.371094 -32.121094 17.335938 -33.71875 C 18.886719 -34.855469 20.203125 -35.152344 21.265625 -34.746094 C 21.773438 -34.46875 22.164062 -34.042969 22.382812 -33.394531 C 22.597656 -32.746094 22.6875 -32.011719 22.535156 -31.046875 C 23.851562 -31.886719 24.609375 -32.859375 24.753906 -33.890625 C 24.90625 -34.855469 24.730469 -35.714844 24.234375 -36.460938 C 23.902344 -36.960938 23.453125 -37.3125 22.945312 -37.589844 C 22.371094 -37.855469 21.8125 -37.988281 21.214844 -37.914062 C 19.480469 -37.703125 17.792969 -37.15625 16.007812 -36.257812 C 14.234375 -35.296875 12.484375 -34.132812 10.769531 -32.703125 C 8.992188 -31.199219 7.300781 -29.570312 5.699219 -27.75 C 4.101562 -25.929688 2.648438 -23.992188 1.414062 -21.945312 C 0.847656 -21.066406 0.238281 -19.976562 -0.289062 -18.761719 C -0.875 -17.472656 -1.390625 -16.191406 -1.835938 -14.851562 C -2.335938 -13.4375 -2.695312 -11.972656 -2.929688 -10.589844 C -3.15625 -9.144531 -3.257812 -7.777344 -3.179688 -6.570312 C -3.046875 -4.425781 -2.441406 -2.808594 -1.3125 -1.867188 C -0.25 -0.914062 0.972656 -0.324219 2.339844 -0.222656 Z M 2.339844 -0.222656 "/></g></g></g><g fill="#ffffff" fill-opacity="1"><g transform="translate(173.612054, 114.771194)"><g><path d="M 6.5625 -25.152344 L -23.238281 33.027344 C -22.304688 32.910156 -21.53125 32.613281 -20.796875 31.980469 L -18.648438 30.226562 C -17.90625 29.664062 -17.023438 29.148438 -16.007812 28.617188 C -14.980469 28.152344 -13.726562 27.929688 -12.109375 27.867188 L -11.515625 26.644531 L 4.46875 -5.421875 C 5.597656 -3.9375 6.878906 -2.878906 8.226562 -2.367188 C 9.515625 -1.785156 10.890625 -1.617188 12.347656 -1.863281 C 13.746094 -2.035156 15.167969 -2.550781 16.550781 -3.398438 C 17.933594 -4.242188 19.292969 -5.289062 20.617188 -6.605469 C 22.320312 -8.164062 23.910156 -10.054688 25.40625 -12.199219 C 26.898438 -14.34375 28.242188 -16.605469 29.441406 -18.917969 C 30.644531 -21.230469 31.65625 -23.449219 32.457031 -25.714844 C 33.261719 -27.976562 33.8125 -30.074219 34.113281 -32.003906 C 34.351562 -33.925781 34.292969 -35.472656 33.996094 -36.789062 C 33.632812 -38.097656 32.925781 -38.890625 31.863281 -39.296875 C 31.164062 -39.480469 30.28125 -39.507812 29.28125 -39.386719 C 28.28125 -39.261719 27.117188 -38.847656 25.84375 -38.214844 C 24.507812 -37.511719 23 -36.582031 21.335938 -35.292969 C 19.601562 -33.996094 17.71875 -32.277344 15.667969 -30.265625 C 16.054688 -32.613281 15.832031 -34.410156 14.941406 -35.585938 C 13.996094 -36.6875 12.914062 -37.230469 11.566406 -37.195312 C 10.492188 -37.132812 9.453125 -36.800781 8.367188 -36.261719 C 7.292969 -35.65625 6.445312 -34.875 5.75 -33.910156 C 6.648438 -33.75 7.300781 -33.425781 7.640625 -32.859375 C 7.988281 -32.226562 8.203125 -31.574219 8.167969 -30.761719 C 8.144531 -29.878906 7.917969 -28.972656 7.632812 -27.988281 C 7.347656 -27.007812 6.996094 -26.015625 6.628906 -25.160156 Z M 14.292969 -11.300781 C 13.160156 -11.160156 12.320312 -11.394531 11.769531 -12 C 11.230469 -12.542969 10.875 -13.242188 10.691406 -14.167969 C 10.453125 -15.015625 10.46875 -15.964844 10.679688 -17.003906 C 10.820312 -18.039062 11.179688 -18.960938 11.617188 -19.824219 L 11.683594 -19.835938 C 12.324219 -21.199219 13.21875 -22.730469 14.359375 -24.425781 C 15.511719 -26.054688 16.730469 -27.691406 18.089844 -29.28125 C 19.390625 -30.792969 20.78125 -32.113281 22.246094 -33.378906 C 23.722656 -34.574219 25.171875 -35.429688 26.589844 -36.011719 C 27.621094 -36.40625 28.4375 -36.375 29.027344 -35.972656 C 29.617188 -35.574219 29.898438 -34.929688 30.015625 -34 C 30.070312 -32.992188 29.945312 -31.828125 29.632812 -30.503906 C 29.332031 -29.113281 28.898438 -27.707031 28.273438 -26.210938 C 27.738281 -25.0625 26.96875 -23.617188 25.953125 -22.003906 C 24.875 -20.3125 23.65625 -18.675781 22.355469 -17.164062 C 20.996094 -15.574219 19.605469 -14.253906 18.1875 -13.132812 C 16.773438 -12.011719 15.5 -11.378906 14.292969 -11.300781 Z M 14.292969 -11.300781 "/></g></g></g></svg>