<svg xmlns="http://www.w3.org/2000/svg" xmlns:xlink="http://www.w3.org/1999/xlink" width="150" zoomAndPan="magnify" viewBox="0 0 112.5 112.499997" height="150" preserveAspectRatio="xMidYMid meet" version="1.0"><defs><clipPath id="id1"><path d="M 57 22 L 112.003906 22 L 112.003906 91 L 57 91 Z M 57 22 " clip-rule="nonzero"/></clipPath></defs><path fill="#8db3d6" d="M 42.902344 29.753906 L 72.507812 29.753906 L 72.507812 83.128906 L 42.902344 83.128906 Z M 42.902344 29.753906 " fill-opacity="1" fill-rule="nonzero"/><path fill="#eb001b" d="M 44.785156 56.445312 C 44.78125 53.875 45.066406 51.339844 45.640625 48.832031 C 46.210938 46.328125 47.058594 43.917969 48.179688 41.605469 C 49.296875 39.292969 50.660156 37.136719 52.269531 35.136719 C 53.878906 33.136719 55.691406 31.34375 57.707031 29.753906 C 56.878906 29.101562 56.023438 28.492188 55.140625 27.917969 C 54.257812 27.347656 53.347656 26.816406 52.414062 26.332031 C 51.480469 25.84375 50.527344 25.402344 49.554688 25.003906 C 48.578125 24.605469 47.589844 24.253906 46.582031 23.949219 C 45.574219 23.644531 44.554688 23.386719 43.523438 23.175781 C 42.492188 22.96875 41.453125 22.804688 40.410156 22.695312 C 39.363281 22.582031 38.3125 22.519531 37.261719 22.503906 C 36.210938 22.488281 35.160156 22.523438 34.113281 22.609375 C 33.0625 22.691406 32.019531 22.824219 30.984375 23.003906 C 29.949219 23.1875 28.921875 23.417969 27.90625 23.695312 C 26.890625 23.972656 25.894531 24.296875 24.90625 24.667969 C 23.921875 25.035156 22.957031 25.453125 22.011719 25.914062 C 21.066406 26.375 20.144531 26.878906 19.242188 27.425781 C 18.34375 27.976562 17.472656 28.5625 16.628906 29.191406 C 15.785156 29.820312 14.96875 30.488281 14.1875 31.195312 C 13.40625 31.898438 12.65625 32.640625 11.941406 33.414062 C 11.230469 34.191406 10.554688 34.996094 9.914062 35.835938 C 9.277344 36.675781 8.675781 37.539062 8.121094 38.433594 C 7.5625 39.328125 7.046875 40.25 6.574219 41.191406 C 6.101562 42.132812 5.671875 43.097656 5.289062 44.078125 C 4.90625 45.0625 4.570312 46.058594 4.28125 47.074219 C 3.988281 48.089844 3.746094 49.113281 3.550781 50.152344 C 3.355469 51.1875 3.210938 52.230469 3.113281 53.28125 C 3.015625 54.332031 2.964844 55.386719 2.964844 56.441406 C 2.964844 57.496094 3.015625 58.550781 3.113281 59.601562 C 3.210938 60.652344 3.355469 61.695312 3.550781 62.730469 C 3.746094 63.769531 3.988281 64.792969 4.28125 65.808594 C 4.570312 66.824219 4.90625 67.820312 5.289062 68.804688 C 5.671875 69.789062 6.101562 70.75 6.574219 71.691406 C 7.046875 72.636719 7.5625 73.554688 8.121094 74.449219 C 8.675781 75.34375 9.277344 76.210938 9.914062 77.046875 C 10.554688 77.886719 11.230469 78.695312 11.941406 79.46875 C 12.65625 80.246094 13.40625 80.984375 14.1875 81.691406 C 14.96875 82.394531 15.785156 83.0625 16.628906 83.691406 C 17.472656 84.320312 18.34375 84.910156 19.242188 85.457031 C 20.144531 86.003906 21.066406 86.507812 22.011719 86.96875 C 22.957031 87.429688 23.921875 87.847656 24.90625 88.21875 C 25.894531 88.589844 26.890625 88.914062 27.90625 89.191406 C 28.921875 89.46875 29.949219 89.695312 30.984375 89.878906 C 32.019531 90.058594 33.0625 90.191406 34.113281 90.277344 C 35.160156 90.359375 36.210938 90.394531 37.261719 90.378906 C 38.3125 90.367188 39.363281 90.300781 40.410156 90.191406 C 41.453125 90.078125 42.492188 89.917969 43.523438 89.707031 C 44.554688 89.496094 45.574219 89.238281 46.582031 88.933594 C 47.589844 88.628906 48.578125 88.277344 49.554688 87.878906 C 50.527344 87.480469 51.480469 87.039062 52.414062 86.554688 C 53.347656 86.066406 54.257812 85.535156 55.140625 84.964844 C 56.023438 84.390625 56.878906 83.78125 57.707031 83.128906 C 55.691406 81.542969 53.878906 79.75 52.273438 77.75 C 50.664062 75.75 49.300781 73.59375 48.179688 71.28125 C 47.0625 68.96875 46.214844 66.5625 45.640625 64.058594 C 45.066406 61.554688 44.78125 59.015625 44.785156 56.445312 Z M 44.785156 56.445312 " fill-opacity="1" fill-rule="nonzero"/><g clip-path="url(#id1)"><path fill="#38b6ff" d="M 112.453125 56.445312 C 112.453125 58.03125 112.34375 59.609375 112.121094 61.175781 C 111.902344 62.746094 111.574219 64.292969 111.136719 65.816406 C 110.703125 67.335938 110.164062 68.824219 109.519531 70.269531 C 108.875 71.714844 108.136719 73.113281 107.296875 74.453125 C 106.460938 75.796875 105.53125 77.074219 104.515625 78.289062 C 103.5 79.5 102.402344 80.636719 101.230469 81.695312 C 100.054688 82.753906 98.8125 83.726562 97.5 84.609375 C 96.191406 85.496094 94.824219 86.28125 93.402344 86.976562 C 91.984375 87.667969 90.519531 88.257812 89.019531 88.746094 C 87.515625 89.230469 85.984375 89.609375 84.429688 89.882812 C 82.875 90.15625 81.308594 90.316406 79.726562 90.371094 C 78.148438 90.421875 76.574219 90.363281 75.003906 90.191406 C 73.433594 90.023438 71.882812 89.746094 70.351562 89.359375 C 68.820312 88.972656 67.324219 88.480469 65.859375 87.882812 C 64.398438 87.285156 62.984375 86.585938 61.617188 85.792969 C 60.253906 84.996094 58.949219 84.109375 57.707031 83.128906 C 58.207031 82.734375 58.699219 82.324219 59.175781 81.902344 C 59.65625 81.476562 60.121094 81.039062 60.574219 80.589844 C 61.027344 80.140625 61.46875 79.679688 61.898438 79.203125 C 62.324219 78.730469 62.738281 78.242188 63.140625 77.746094 C 63.539062 77.246094 63.925781 76.738281 64.296875 76.21875 C 64.667969 75.699219 65.027344 75.167969 65.367188 74.628906 C 65.710938 74.085938 66.035156 73.539062 66.347656 72.980469 C 66.65625 72.421875 66.953125 71.851562 67.230469 71.277344 C 67.511719 70.703125 67.773438 70.117188 68.019531 69.527344 C 68.265625 68.9375 68.492188 68.339844 68.707031 67.738281 C 68.917969 67.132812 69.113281 66.523438 69.292969 65.910156 C 69.46875 65.296875 69.628906 64.675781 69.773438 64.054688 C 69.914062 63.429688 70.042969 62.804688 70.148438 62.171875 C 70.257812 61.542969 70.347656 60.90625 70.417969 60.273438 C 70.492188 59.636719 70.542969 59 70.582031 58.359375 C 70.617188 57.722656 70.632812 57.082031 70.632812 56.441406 C 70.632812 55.800781 70.617188 55.164062 70.582031 54.523438 C 70.542969 53.886719 70.492188 53.246094 70.417969 52.613281 C 70.347656 51.976562 70.257812 51.34375 70.148438 50.710938 C 70.042969 50.082031 69.914062 49.453125 69.773438 48.832031 C 69.628906 48.207031 69.46875 47.585938 69.292969 46.972656 C 69.113281 46.359375 68.917969 45.75 68.707031 45.144531 C 68.492188 44.542969 68.265625 43.945312 68.019531 43.355469 C 67.773438 42.765625 67.511719 42.183594 67.230469 41.605469 C 66.953125 41.03125 66.65625 40.464844 66.347656 39.90625 C 66.035156 39.347656 65.710938 38.796875 65.367188 38.257812 C 65.027344 37.714844 64.667969 37.1875 64.296875 36.664062 C 63.925781 36.144531 63.539062 35.636719 63.140625 35.136719 C 62.738281 34.640625 62.324219 34.152344 61.898438 33.679688 C 61.46875 33.203125 61.027344 32.742188 60.574219 32.292969 C 60.121094 31.84375 59.65625 31.40625 59.175781 30.984375 C 58.699219 30.558594 58.207031 30.152344 57.707031 29.753906 C 58.949219 28.777344 60.253906 27.886719 61.617188 27.09375 C 62.984375 26.296875 64.398438 25.597656 65.859375 25.003906 C 67.324219 24.40625 68.820312 23.914062 70.351562 23.523438 C 71.882812 23.136719 73.433594 22.859375 75.003906 22.691406 C 76.574219 22.519531 78.148438 22.460938 79.726562 22.515625 C 81.308594 22.566406 82.875 22.730469 84.429688 23 C 85.984375 23.273438 87.515625 23.652344 89.019531 24.140625 C 90.519531 24.625 91.984375 25.214844 93.402344 25.910156 C 94.824219 26.601562 96.191406 27.390625 97.5 28.273438 C 98.8125 29.15625 100.054688 30.128906 101.230469 31.1875 C 102.402344 32.246094 103.5 33.382812 104.515625 34.597656 C 105.53125 35.808594 106.460938 37.085938 107.296875 38.429688 C 108.136719 39.773438 108.875 41.167969 109.519531 42.613281 C 110.164062 44.0625 110.703125 45.546875 111.140625 47.070312 C 111.574219 48.59375 111.902344 50.136719 112.121094 51.707031 C 112.34375 53.277344 112.453125 54.851562 112.453125 56.4375 Z M 112.453125 56.445312 " fill-opacity="1" fill-rule="nonzero"/></g><path fill="#38b6ff" d="M 109.21875 77.472656 L 109.21875 76.378906 L 109.660156 76.378906 L 109.660156 76.152344 L 108.542969 76.152344 L 108.542969 76.378906 L 109.023438 76.378906 L 109.023438 77.472656 Z M 111.390625 77.472656 L 111.390625 76.152344 L 111.050781 76.152344 L 110.65625 77.09375 L 110.261719 76.152344 L 109.960938 76.152344 L 109.960938 77.472656 L 110.207031 77.472656 L 110.207031 76.480469 L 110.574219 77.339844 L 110.828125 77.339844 L 111.195312 76.480469 L 111.195312 77.480469 Z M 111.390625 77.472656 " fill-opacity="1" fill-rule="nonzero"/></svg>