<svg xmlns="http://www.w3.org/2000/svg" xmlns:xlink="http://www.w3.org/1999/xlink" width="150" zoomAndPan="magnify" viewBox="0 0 112.5 112.499997" height="150" preserveAspectRatio="xMidYMid meet" version="1.0"><defs><clipPath id="id1"><path d="M 8 87 L 112 87 L 112 100.5 L 8 100.5 Z M 8 87 " clip-rule="nonzero"/></clipPath><clipPath id="id2"><path d="M 57 14 L 112.003906 14 L 112.003906 83 L 57 83 Z M 57 14 " clip-rule="nonzero"/></clipPath></defs><g clip-path="url(#id1)"><path fill="#231f20" d="M 22.886719 99.914062 L 22.886719 94.257812 C 22.902344 94.019531 22.894531 93.78125 22.859375 93.546875 C 22.824219 93.308594 22.765625 93.082031 22.683594 92.855469 C 22.601562 92.632812 22.496094 92.421875 22.367188 92.21875 C 22.242188 92.019531 22.09375 91.832031 21.925781 91.664062 C 21.757812 91.496094 21.574219 91.34375 21.375 91.214844 C 21.175781 91.085938 20.96875 90.976562 20.746094 90.890625 C 20.523438 90.804688 20.292969 90.746094 20.058594 90.707031 C 19.824219 90.671875 19.589844 90.660156 19.351562 90.675781 C 18.71875 90.632812 18.121094 90.753906 17.554688 91.042969 C 16.988281 91.328125 16.535156 91.742188 16.195312 92.277344 C 15.882812 91.757812 15.460938 91.355469 14.929688 91.066406 C 14.394531 90.777344 13.828125 90.648438 13.222656 90.675781 C 12.699219 90.648438 12.199219 90.753906 11.730469 90.992188 C 11.261719 91.230469 10.882812 91.570312 10.59375 92.011719 L 10.59375 90.902344 L 8.636719 90.902344 L 8.636719 99.914062 L 10.609375 99.914062 L 10.609375 94.953125 C 10.570312 94.644531 10.59375 94.335938 10.6875 94.035156 C 10.78125 93.734375 10.9375 93.46875 11.148438 93.238281 C 11.359375 93.007812 11.613281 92.832031 11.902344 92.710938 C 12.195312 92.59375 12.496094 92.542969 12.808594 92.558594 C 14.105469 92.558594 14.765625 93.410156 14.765625 94.9375 L 14.765625 99.953125 L 16.738281 99.953125 L 16.738281 94.953125 C 16.699219 94.644531 16.726562 94.335938 16.820312 94.039062 C 16.914062 93.738281 17.066406 93.472656 17.28125 93.242188 C 17.492188 93.011719 17.742188 92.835938 18.035156 92.714844 C 18.324219 92.597656 18.625 92.542969 18.9375 92.558594 C 20.273438 92.558594 20.910156 93.410156 20.910156 94.9375 L 20.910156 99.953125 Z M 52.085938 90.902344 L 48.871094 90.902344 L 48.871094 88.167969 L 46.898438 88.167969 L 46.898438 90.902344 L 45.113281 90.902344 L 45.113281 92.691406 L 46.9375 92.691406 L 46.9375 96.839844 C 46.9375 98.933594 47.746094 100.179688 50.054688 100.179688 C 50.9375 100.179688 51.753906 99.949219 52.5 99.480469 L 51.9375 97.800781 C 51.402344 98.121094 50.828125 98.289062 50.207031 98.3125 C 49.265625 98.3125 48.910156 97.707031 48.910156 96.804688 L 48.910156 92.691406 L 52.105469 92.691406 Z M 68.757812 90.675781 C 68.273438 90.660156 67.820312 90.769531 67.394531 91.007812 C 66.96875 91.246094 66.636719 91.574219 66.390625 91.996094 L 66.390625 90.902344 L 64.453125 90.902344 L 64.453125 99.914062 L 66.410156 99.914062 L 66.410156 94.859375 C 66.410156 93.371094 67.050781 92.542969 68.289062 92.542969 C 68.710938 92.535156 69.117188 92.609375 69.511719 92.765625 L 70.113281 90.882812 C 69.664062 90.71875 69.199219 90.640625 68.722656 90.636719 Z M 43.550781 91.617188 C 42.421875 90.945312 41.199219 90.628906 39.886719 90.675781 C 37.613281 90.675781 36.128906 91.769531 36.128906 93.558594 C 36.128906 95.03125 37.21875 95.933594 39.230469 96.21875 L 40.167969 96.351562 C 41.242188 96.5 41.75 96.785156 41.75 97.292969 C 41.75 97.992188 41.035156 98.386719 39.699219 98.386719 C 38.59375 98.417969 37.597656 98.105469 36.710938 97.445312 L 35.769531 98.972656 C 36.941406 99.789062 38.238281 100.179688 39.660156 100.140625 C 42.253906 100.140625 43.757812 98.914062 43.757812 97.199219 C 43.757812 95.484375 42.574219 94.785156 40.621094 94.503906 L 39.679688 94.371094 C 38.835938 94.257812 38.15625 94.085938 38.15625 93.484375 C 38.15625 92.878906 38.796875 92.429688 39.867188 92.429688 C 40.875 92.441406 41.816406 92.699219 42.6875 93.203125 Z M 95.910156 90.675781 C 95.425781 90.660156 94.972656 90.769531 94.546875 91.007812 C 94.121094 91.246094 93.789062 91.574219 93.542969 91.996094 L 93.542969 90.902344 L 91.605469 90.902344 L 91.605469 99.914062 L 93.5625 99.914062 L 93.5625 94.859375 C 93.5625 93.371094 94.199219 92.542969 95.441406 92.542969 C 95.863281 92.535156 96.269531 92.609375 96.664062 92.765625 L 97.265625 90.882812 C 96.816406 90.71875 96.351562 90.640625 95.875 90.636719 Z M 70.722656 95.386719 C 70.710938 95.707031 70.734375 96.019531 70.785156 96.332031 C 70.839844 96.644531 70.925781 96.949219 71.042969 97.242188 C 71.160156 97.535156 71.304688 97.816406 71.480469 98.078125 C 71.65625 98.34375 71.855469 98.585938 72.082031 98.808594 C 72.308594 99.03125 72.554688 99.226562 72.820312 99.394531 C 73.085938 99.566406 73.367188 99.707031 73.664062 99.820312 C 73.960938 99.929688 74.261719 100.011719 74.574219 100.058594 C 74.886719 100.105469 75.203125 100.121094 75.515625 100.101562 C 76.734375 100.164062 77.8125 99.804688 78.75 99.027344 L 77.808594 97.445312 C 77.117188 97.976562 76.332031 98.246094 75.460938 98.253906 C 75.097656 98.226562 74.753906 98.132812 74.429688 97.972656 C 74.105469 97.8125 73.816406 97.597656 73.574219 97.332031 C 73.328125 97.066406 73.136719 96.761719 73.003906 96.421875 C 72.875 96.085938 72.808594 95.734375 72.808594 95.371094 C 72.808594 95.007812 72.875 94.65625 73.003906 94.316406 C 73.136719 93.976562 73.328125 93.675781 73.574219 93.40625 C 73.816406 93.140625 74.105469 92.925781 74.429688 92.765625 C 74.753906 92.609375 75.097656 92.515625 75.460938 92.484375 C 76.332031 92.496094 77.117188 92.765625 77.808594 93.296875 L 78.75 91.710938 C 77.8125 90.933594 76.734375 90.574219 75.515625 90.636719 C 75.203125 90.617188 74.886719 90.632812 74.574219 90.679688 C 74.261719 90.730469 73.960938 90.808594 73.664062 90.921875 C 73.367188 91.03125 73.085938 91.171875 72.820312 91.34375 C 72.554688 91.511719 72.308594 91.710938 72.082031 91.929688 C 71.855469 92.152344 71.65625 92.394531 71.480469 92.660156 C 71.304688 92.925781 71.160156 93.203125 71.042969 93.496094 C 70.925781 93.792969 70.839844 94.09375 70.785156 94.40625 C 70.734375 94.71875 70.710938 95.035156 70.722656 95.351562 Z M 89.03125 95.386719 L 89.03125 90.902344 L 87.078125 90.902344 L 87.078125 91.996094 C 86.742188 91.558594 86.324219 91.226562 85.824219 90.992188 C 85.328125 90.761719 84.804688 90.652344 84.257812 90.675781 C 83.949219 90.675781 83.644531 90.703125 83.339844 90.765625 C 83.039062 90.824219 82.746094 90.914062 82.460938 91.035156 C 82.175781 91.152344 81.902344 91.296875 81.648438 91.46875 C 81.390625 91.640625 81.152344 91.835938 80.933594 92.054688 C 80.714844 92.273438 80.523438 92.511719 80.351562 92.769531 C 80.179688 93.027344 80.035156 93.296875 79.914062 93.585938 C 79.796875 93.871094 79.707031 94.164062 79.648438 94.46875 C 79.589844 94.773438 79.558594 95.078125 79.558594 95.386719 C 79.558594 95.699219 79.589844 96.003906 79.648438 96.308594 C 79.707031 96.613281 79.796875 96.90625 79.914062 97.191406 C 80.035156 97.480469 80.179688 97.75 80.351562 98.007812 C 80.523438 98.265625 80.714844 98.503906 80.933594 98.722656 C 81.152344 98.941406 81.390625 99.136719 81.648438 99.308594 C 81.902344 99.480469 82.175781 99.625 82.460938 99.742188 C 82.746094 99.863281 83.039062 99.953125 83.339844 100.011719 C 83.644531 100.074219 83.949219 100.101562 84.257812 100.101562 C 84.804688 100.121094 85.328125 100.015625 85.824219 99.785156 C 86.324219 99.550781 86.742188 99.21875 87.078125 98.78125 L 87.078125 99.875 L 89.03125 99.875 Z M 81.757812 95.386719 C 81.777344 95.03125 81.867188 94.695312 82.019531 94.371094 C 82.171875 94.050781 82.378906 93.769531 82.644531 93.53125 C 82.90625 93.292969 83.203125 93.113281 83.539062 92.988281 C 83.871094 92.867188 84.214844 92.8125 84.570312 92.824219 C 84.925781 92.839844 85.265625 92.917969 85.589844 93.066406 C 85.914062 93.214844 86.195312 93.417969 86.441406 93.675781 C 86.683594 93.933594 86.871094 94.230469 87 94.5625 C 87.128906 94.894531 87.191406 95.238281 87.183594 95.59375 C 87.179688 95.949219 87.105469 96.292969 86.96875 96.617188 C 86.828125 96.945312 86.632812 97.234375 86.378906 97.484375 C 86.125 97.738281 85.835938 97.929688 85.507812 98.066406 C 85.179688 98.203125 84.839844 98.273438 84.484375 98.273438 C 84.105469 98.277344 83.746094 98.207031 83.398438 98.058594 C 83.050781 97.914062 82.75 97.703125 82.492188 97.429688 C 82.230469 97.15625 82.039062 96.839844 81.910156 96.484375 C 81.785156 96.132812 81.734375 95.765625 81.757812 95.386719 Z M 58.167969 90.675781 C 57.859375 90.679688 57.554688 90.714844 57.253906 90.777344 C 56.949219 90.84375 56.660156 90.9375 56.375 91.058594 C 56.089844 91.183594 55.824219 91.332031 55.570312 91.507812 C 55.316406 91.683594 55.082031 91.882812 54.867188 92.101562 C 54.652344 92.324219 54.460938 92.566406 54.292969 92.824219 C 54.125 93.085938 53.984375 93.359375 53.871094 93.644531 C 53.753906 93.933594 53.671875 94.230469 53.613281 94.535156 C 53.558594 94.839844 53.53125 95.144531 53.535156 95.453125 C 53.542969 95.765625 53.574219 96.070312 53.640625 96.371094 C 53.703125 96.675781 53.796875 96.96875 53.917969 97.253906 C 54.042969 97.535156 54.191406 97.804688 54.363281 98.0625 C 54.539062 98.316406 54.738281 98.550781 54.957031 98.765625 C 55.179688 98.984375 55.417969 99.175781 55.679688 99.34375 C 55.9375 99.511719 56.210938 99.652344 56.496094 99.769531 C 56.78125 99.882812 57.078125 99.96875 57.382812 100.023438 C 57.683594 100.082031 57.992188 100.105469 58.300781 100.101562 C 59.699219 100.175781 60.941406 99.765625 62.03125 98.878906 L 61.089844 97.425781 C 60.328125 98.039062 59.457031 98.355469 58.476562 98.367188 C 58.15625 98.394531 57.835938 98.363281 57.527344 98.265625 C 57.21875 98.167969 56.9375 98.019531 56.6875 97.8125 C 56.4375 97.605469 56.234375 97.359375 56.078125 97.074219 C 55.921875 96.789062 55.828125 96.484375 55.789062 96.160156 L 62.460938 96.160156 C 62.460938 95.917969 62.460938 95.671875 62.460938 95.40625 C 62.460938 92.578125 60.714844 90.695312 58.195312 90.695312 Z M 58.167969 92.429688 C 58.460938 92.421875 58.746094 92.472656 59.023438 92.578125 C 59.296875 92.6875 59.542969 92.84375 59.757812 93.050781 C 59.96875 93.253906 60.136719 93.492188 60.253906 93.765625 C 60.375 94.035156 60.4375 94.320312 60.441406 94.617188 L 55.742188 94.617188 C 55.757812 94.3125 55.832031 94.023438 55.960938 93.75 C 56.09375 93.476562 56.269531 93.238281 56.492188 93.035156 C 56.714844 92.828125 56.96875 92.675781 57.25 92.570312 C 57.535156 92.464844 57.828125 92.417969 58.128906 92.429688 Z M 107.144531 95.40625 L 107.144531 87.28125 L 105.261719 87.28125 L 105.261719 91.996094 C 104.925781 91.558594 104.507812 91.226562 104.011719 90.992188 C 103.515625 90.761719 102.992188 90.652344 102.445312 90.675781 C 102.136719 90.675781 101.828125 90.703125 101.527344 90.765625 C 101.222656 90.824219 100.929688 90.914062 100.644531 91.035156 C 100.359375 91.152344 100.089844 91.296875 99.832031 91.46875 C 99.578125 91.640625 99.339844 91.835938 99.121094 92.054688 C 98.902344 92.273438 98.707031 92.511719 98.535156 92.769531 C 98.363281 93.027344 98.21875 93.296875 98.101562 93.585938 C 97.984375 93.871094 97.894531 94.164062 97.835938 94.46875 C 97.773438 94.773438 97.746094 95.078125 97.746094 95.386719 C 97.746094 95.699219 97.773438 96.003906 97.835938 96.308594 C 97.894531 96.613281 97.984375 96.90625 98.101562 97.191406 C 98.21875 97.480469 98.363281 97.75 98.535156 98.007812 C 98.707031 98.265625 98.902344 98.503906 99.121094 98.722656 C 99.339844 98.941406 99.578125 99.136719 99.832031 99.308594 C 100.089844 99.480469 100.359375 99.625 100.644531 99.742188 C 100.929688 99.863281 101.222656 99.953125 101.527344 100.011719 C 101.828125 100.074219 102.136719 100.101562 102.445312 100.101562 C 102.992188 100.121094 103.515625 100.015625 104.011719 99.785156 C 104.507812 99.550781 104.925781 99.21875 105.261719 98.78125 L 105.261719 99.875 L 107.144531 99.875 Z M 110.402344 98.605469 C 110.527344 98.601562 110.648438 98.625 110.761719 98.667969 C 110.871094 98.714844 110.96875 98.777344 111.050781 98.859375 C 111.136719 98.941406 111.203125 99.035156 111.25 99.140625 C 111.351562 99.375 111.351562 99.605469 111.25 99.839844 C 111.203125 99.945312 111.136719 100.039062 111.050781 100.121094 C 110.96875 100.203125 110.871094 100.265625 110.761719 100.308594 C 110.648438 100.359375 110.527344 100.386719 110.402344 100.386719 C 110.007812 100.382812 109.726562 100.199219 109.558594 99.839844 C 109.460938 99.605469 109.460938 99.375 109.558594 99.140625 C 109.605469 99.035156 109.671875 98.941406 109.753906 98.859375 C 109.839844 98.777344 109.9375 98.714844 110.046875 98.667969 C 110.171875 98.621094 110.300781 98.597656 110.433594 98.605469 Z M 110.402344 100.195312 C 110.5 100.199219 110.589844 100.179688 110.675781 100.140625 C 110.757812 100.105469 110.832031 100.054688 110.894531 99.988281 C 111.015625 99.855469 111.074219 99.699219 111.074219 99.519531 C 111.074219 99.335938 111.015625 99.179688 110.894531 99.046875 C 110.832031 98.984375 110.757812 98.933594 110.675781 98.894531 C 110.589844 98.859375 110.5 98.839844 110.402344 98.839844 C 110.308594 98.839844 110.21875 98.859375 110.132812 98.894531 C 110.046875 98.929688 109.972656 98.980469 109.90625 99.046875 C 109.785156 99.179688 109.722656 99.335938 109.722656 99.519531 C 109.722656 99.699219 109.785156 99.855469 109.90625 99.988281 C 109.972656 100.054688 110.046875 100.105469 110.132812 100.140625 C 110.226562 100.183594 110.328125 100.199219 110.433594 100.195312 Z M 110.460938 99.074219 C 110.550781 99.070312 110.632812 99.097656 110.703125 99.152344 C 110.765625 99.203125 110.796875 99.269531 110.789062 99.347656 C 110.792969 99.414062 110.769531 99.472656 110.722656 99.519531 C 110.667969 99.570312 110.601562 99.597656 110.527344 99.601562 L 110.800781 99.914062 L 110.582031 99.914062 L 110.328125 99.601562 L 110.246094 99.601562 L 110.246094 99.914062 L 110.066406 99.914062 L 110.066406 99.085938 Z M 110.253906 99.234375 L 110.253906 99.460938 L 110.460938 99.460938 C 110.5 99.472656 110.535156 99.472656 110.574219 99.460938 C 110.585938 99.433594 110.585938 99.40625 110.574219 99.375 C 110.585938 99.347656 110.585938 99.320312 110.574219 99.292969 C 110.535156 99.28125 110.5 99.28125 110.460938 99.292969 Z M 99.914062 95.40625 C 99.9375 95.050781 100.023438 94.714844 100.175781 94.390625 C 100.328125 94.070312 100.539062 93.789062 100.800781 93.550781 C 101.0625 93.3125 101.363281 93.128906 101.695312 93.007812 C 102.03125 92.886719 102.375 92.832031 102.730469 92.84375 C 103.082031 92.859375 103.421875 92.9375 103.746094 93.085938 C 104.070312 93.230469 104.355469 93.433594 104.597656 93.695312 C 104.84375 93.953125 105.027344 94.246094 105.15625 94.578125 C 105.285156 94.910156 105.347656 95.253906 105.34375 95.613281 C 105.335938 95.96875 105.265625 96.308594 105.125 96.636719 C 104.984375 96.964844 104.789062 97.253906 104.535156 97.503906 C 104.285156 97.753906 103.992188 97.949219 103.664062 98.085938 C 103.335938 98.222656 102.996094 98.289062 102.640625 98.292969 C 102.265625 98.296875 101.902344 98.226562 101.558594 98.078125 C 101.210938 97.933594 100.90625 97.722656 100.648438 97.449219 C 100.390625 97.175781 100.195312 96.859375 100.070312 96.503906 C 99.941406 96.148438 99.890625 95.785156 99.914062 95.40625 Z M 33.910156 95.40625 L 33.910156 90.902344 L 31.953125 90.902344 L 31.953125 91.996094 C 31.617188 91.558594 31.199219 91.226562 30.703125 90.992188 C 30.207031 90.761719 29.683594 90.652344 29.136719 90.675781 C 28.828125 90.675781 28.519531 90.703125 28.21875 90.765625 C 27.914062 90.824219 27.621094 90.914062 27.335938 91.035156 C 27.050781 91.152344 26.78125 91.296875 26.523438 91.46875 C 26.269531 91.640625 26.03125 91.835938 25.8125 92.054688 C 25.59375 92.273438 25.398438 92.511719 25.226562 92.769531 C 25.054688 93.027344 24.910156 93.296875 24.792969 93.585938 C 24.675781 93.871094 24.585938 94.164062 24.527344 94.46875 C 24.464844 94.773438 24.4375 95.078125 24.4375 95.386719 C 24.4375 95.699219 24.464844 96.003906 24.527344 96.308594 C 24.585938 96.613281 24.675781 96.90625 24.792969 97.191406 C 24.910156 97.480469 25.054688 97.75 25.226562 98.007812 C 25.398438 98.265625 25.59375 98.503906 25.8125 98.722656 C 26.03125 98.941406 26.269531 99.136719 26.523438 99.308594 C 26.78125 99.480469 27.050781 99.625 27.335938 99.742188 C 27.621094 99.863281 27.914062 99.953125 28.21875 100.011719 C 28.519531 100.074219 28.828125 100.101562 29.136719 100.101562 C 29.683594 100.121094 30.207031 100.015625 30.703125 99.785156 C 31.199219 99.550781 31.617188 99.21875 31.953125 98.78125 L 31.953125 99.875 L 33.910156 99.875 Z M 26.636719 95.40625 C 26.65625 95.050781 26.742188 94.714844 26.898438 94.390625 C 27.050781 94.070312 27.257812 93.789062 27.519531 93.550781 C 27.785156 93.3125 28.082031 93.128906 28.414062 93.007812 C 28.75 92.886719 29.09375 92.832031 29.449219 92.84375 C 29.804688 92.859375 30.144531 92.9375 30.464844 93.085938 C 30.789062 93.230469 31.074219 93.433594 31.316406 93.695312 C 31.5625 93.953125 31.75 94.246094 31.878906 94.578125 C 32.007812 94.910156 32.066406 95.253906 32.0625 95.613281 C 32.058594 95.96875 31.984375 96.308594 31.84375 96.636719 C 31.707031 96.964844 31.507812 97.253906 31.257812 97.503906 C 31.003906 97.753906 30.714844 97.949219 30.386719 98.085938 C 30.058594 98.222656 29.714844 98.289062 29.359375 98.292969 C 28.984375 98.300781 28.621094 98.230469 28.269531 98.085938 C 27.921875 97.9375 27.617188 97.730469 27.355469 97.457031 C 27.09375 97.179688 26.902344 96.867188 26.773438 96.507812 C 26.644531 96.152344 26.589844 95.785156 26.617188 95.40625 Z M 26.636719 95.40625 " fill-opacity="1" fill-rule="nonzero"/></g><path fill="#ff5f00" d="M 42.902344 22.214844 L 72.507812 22.214844 L 72.507812 75.589844 L 42.902344 75.589844 Z M 42.902344 22.214844 " fill-opacity="1" fill-rule="nonzero"/><path fill="#eb001b" d="M 44.785156 48.90625 C 44.78125 46.335938 45.066406 43.800781 45.640625 41.292969 C 46.210938 38.789062 47.058594 36.378906 48.179688 34.066406 C 49.296875 31.753906 50.660156 29.597656 52.269531 27.597656 C 53.878906 25.597656 55.691406 23.804688 57.707031 22.214844 C 56.878906 21.5625 56.023438 20.953125 55.140625 20.378906 C 54.257812 19.808594 53.347656 19.277344 52.414062 18.792969 C 51.480469 18.304688 50.527344 17.863281 49.554688 17.464844 C 48.578125 17.066406 47.589844 16.714844 46.582031 16.410156 C 45.574219 16.105469 44.554688 15.847656 43.523438 15.636719 C 42.492188 15.429688 41.453125 15.265625 40.410156 15.15625 C 39.363281 15.042969 38.3125 14.980469 37.261719 14.964844 C 36.210938 14.949219 35.160156 14.984375 34.113281 15.070312 C 33.0625 15.152344 32.019531 15.285156 30.984375 15.464844 C 29.949219 15.648438 28.921875 15.878906 27.90625 16.15625 C 26.890625 16.433594 25.894531 16.757812 24.90625 17.128906 C 23.921875 17.496094 22.957031 17.914062 22.011719 18.375 C 21.066406 18.835938 20.144531 19.339844 19.242188 19.886719 C 18.34375 20.4375 17.472656 21.023438 16.628906 21.652344 C 15.785156 22.28125 14.96875 22.949219 14.1875 23.65625 C 13.40625 24.359375 12.65625 25.101562 11.941406 25.875 C 11.230469 26.652344 10.554688 27.457031 9.914062 28.296875 C 9.277344 29.136719 8.675781 30 8.121094 30.894531 C 7.5625 31.789062 7.046875 32.710938 6.574219 33.652344 C 6.101562 34.59375 5.671875 35.558594 5.289062 36.539062 C 4.90625 37.523438 4.570312 38.519531 4.28125 39.535156 C 3.988281 40.550781 3.746094 41.574219 3.550781 42.613281 C 3.355469 43.648438 3.210938 44.691406 3.113281 45.742188 C 3.015625 46.792969 2.964844 47.847656 2.964844 48.902344 C 2.964844 49.957031 3.015625 51.011719 3.113281 52.0625 C 3.210938 53.113281 3.355469 54.15625 3.550781 55.191406 C 3.746094 56.230469 3.988281 57.253906 4.28125 58.269531 C 4.570312 59.285156 4.90625 60.28125 5.289062 61.265625 C 5.671875 62.25 6.101562 63.210938 6.574219 64.152344 C 7.046875 65.097656 7.5625 66.015625 8.121094 66.910156 C 8.675781 67.804688 9.277344 68.671875 9.914062 69.507812 C 10.554688 70.347656 11.230469 71.15625 11.941406 71.929688 C 12.65625 72.707031 13.40625 73.445312 14.1875 74.152344 C 14.96875 74.855469 15.785156 75.523438 16.628906 76.152344 C 17.472656 76.78125 18.34375 77.371094 19.242188 77.917969 C 20.144531 78.464844 21.066406 78.96875 22.011719 79.429688 C 22.957031 79.890625 23.921875 80.308594 24.90625 80.679688 C 25.894531 81.050781 26.890625 81.375 27.90625 81.652344 C 28.921875 81.929688 29.949219 82.15625 30.984375 82.339844 C 32.019531 82.519531 33.0625 82.652344 34.113281 82.738281 C 35.160156 82.820312 36.210938 82.855469 37.261719 82.839844 C 38.3125 82.828125 39.363281 82.761719 40.410156 82.652344 C 41.453125 82.539062 42.492188 82.378906 43.523438 82.167969 C 44.554688 81.957031 45.574219 81.699219 46.582031 81.394531 C 47.589844 81.089844 48.578125 80.738281 49.554688 80.339844 C 50.527344 79.941406 51.480469 79.5 52.414062 79.015625 C 53.347656 78.527344 54.257812 77.996094 55.140625 77.425781 C 56.023438 76.851562 56.878906 76.242188 57.707031 75.589844 C 55.691406 74.003906 53.878906 72.210938 52.273438 70.210938 C 50.664062 68.210938 49.300781 66.054688 48.179688 63.742188 C 47.0625 61.429688 46.214844 59.023438 45.640625 56.519531 C 45.066406 54.015625 44.78125 51.476562 44.785156 48.90625 Z M 44.785156 48.90625 " fill-opacity="1" fill-rule="nonzero"/><g clip-path="url(#id2)"><path fill="#f79e1b" d="M 112.453125 48.90625 C 112.453125 50.492188 112.34375 52.070312 112.121094 53.636719 C 111.902344 55.207031 111.574219 56.753906 111.136719 58.277344 C 110.703125 59.796875 110.164062 61.285156 109.519531 62.730469 C 108.875 64.175781 108.136719 65.574219 107.296875 66.914062 C 106.460938 68.257812 105.53125 69.535156 104.515625 70.75 C 103.5 71.960938 102.402344 73.097656 101.230469 74.15625 C 100.054688 75.214844 98.8125 76.1875 97.5 77.070312 C 96.191406 77.957031 94.824219 78.742188 93.402344 79.4375 C 91.984375 80.128906 90.519531 80.71875 89.019531 81.207031 C 87.515625 81.691406 85.984375 82.070312 84.429688 82.34375 C 82.875 82.617188 81.308594 82.777344 79.726562 82.828125 C 78.148438 82.882812 76.574219 82.824219 75.003906 82.652344 C 73.433594 82.484375 71.882812 82.207031 70.351562 81.820312 C 68.820312 81.433594 67.324219 80.941406 65.859375 80.34375 C 64.398438 79.746094 62.984375 79.046875 61.617188 78.253906 C 60.253906 77.457031 58.949219 76.570312 57.707031 75.589844 C 58.207031 75.195312 58.699219 74.785156 59.175781 74.363281 C 59.65625 73.9375 60.121094 73.5 60.574219 73.050781 C 61.027344 72.601562 61.46875 72.140625 61.898438 71.664062 C 62.324219 71.191406 62.738281 70.703125 63.140625 70.207031 C 63.539062 69.707031 63.925781 69.199219 64.296875 68.679688 C 64.667969 68.160156 65.027344 67.628906 65.367188 67.089844 C 65.710938 66.546875 66.035156 66 66.347656 65.441406 C 66.65625 64.882812 66.953125 64.3125 67.230469 63.738281 C 67.511719 63.164062 67.773438 62.578125 68.019531 61.988281 C 68.265625 61.398438 68.492188 60.800781 68.707031 60.199219 C 68.917969 59.59375 69.113281 58.984375 69.292969 58.371094 C 69.46875 57.757812 69.628906 57.136719 69.773438 56.515625 C 69.914062 55.890625 70.042969 55.261719 70.148438 54.632812 C 70.257812 54.003906 70.347656 53.367188 70.417969 52.734375 C 70.492188 52.097656 70.542969 51.460938 70.582031 50.820312 C 70.617188 50.183594 70.632812 49.542969 70.632812 48.902344 C 70.632812 48.261719 70.617188 47.625 70.582031 46.984375 C 70.542969 46.347656 70.492188 45.707031 70.417969 45.074219 C 70.347656 44.4375 70.257812 43.804688 70.148438 43.171875 C 70.042969 42.542969 69.914062 41.914062 69.773438 41.292969 C 69.628906 40.667969 69.46875 40.046875 69.292969 39.433594 C 69.113281 38.820312 68.917969 38.210938 68.707031 37.605469 C 68.492188 37.003906 68.265625 36.40625 68.019531 35.816406 C 67.773438 35.226562 67.511719 34.644531 67.230469 34.066406 C 66.953125 33.492188 66.65625 32.925781 66.347656 32.367188 C 66.035156 31.808594 65.710938 31.257812 65.367188 30.71875 C 65.027344 30.175781 64.667969 29.648438 64.296875 29.125 C 63.925781 28.605469 63.539062 28.097656 63.140625 27.597656 C 62.738281 27.101562 62.324219 26.613281 61.898438 26.140625 C 61.46875 25.664062 61.027344 25.203125 60.574219 24.753906 C 60.121094 24.304688 59.65625 23.867188 59.175781 23.445312 C 58.699219 23.019531 58.207031 22.613281 57.707031 22.214844 C 58.949219 21.238281 60.253906 20.347656 61.617188 19.554688 C 62.984375 18.757812 64.398438 18.058594 65.859375 17.460938 C 67.324219 16.867188 68.820312 16.375 70.351562 15.984375 C 71.882812 15.597656 73.433594 15.320312 75.003906 15.152344 C 76.574219 14.980469 78.148438 14.921875 79.726562 14.976562 C 81.308594 15.027344 82.875 15.191406 84.429688 15.460938 C 85.984375 15.734375 87.515625 16.113281 89.019531 16.601562 C 90.519531 17.085938 91.984375 17.675781 93.402344 18.371094 C 94.824219 19.0625 96.191406 19.851562 97.5 20.734375 C 98.8125 21.617188 100.054688 22.589844 101.230469 23.648438 C 102.402344 24.707031 103.5 25.84375 104.515625 27.058594 C 105.53125 28.269531 106.460938 29.546875 107.296875 30.890625 C 108.136719 32.234375 108.875 33.628906 109.519531 35.074219 C 110.164062 36.523438 110.703125 38.007812 111.140625 39.53125 C 111.574219 41.054688 111.902344 42.597656 112.121094 44.167969 C 112.34375 45.738281 112.453125 47.3125 112.453125 48.898438 Z M 112.453125 48.90625 " fill-opacity="1" fill-rule="nonzero"/></g><path fill="#f79e1b" d="M 109.21875 69.933594 L 109.21875 68.839844 L 109.660156 68.839844 L 109.660156 68.613281 L 108.542969 68.613281 L 108.542969 68.839844 L 109.023438 68.839844 L 109.023438 69.933594 Z M 111.390625 69.933594 L 111.390625 68.613281 L 111.050781 68.613281 L 110.65625 69.554688 L 110.261719 68.613281 L 109.960938 68.613281 L 109.960938 69.933594 L 110.207031 69.933594 L 110.207031 68.941406 L 110.574219 69.800781 L 110.828125 69.800781 L 111.195312 68.941406 L 111.195312 69.941406 Z M 111.390625 69.933594 " fill-opacity="1" fill-rule="nonzero"/></svg>