<svg xmlns="http://www.w3.org/2000/svg" xmlns:xlink="http://www.w3.org/1999/xlink" width="1080" zoomAndPan="magnify" viewBox="0 0 810 809.999993" height="1080" preserveAspectRatio="xMidYMid meet" version="1.0"><defs><clipPath id="id1"><path d="M 99.730469 0 L 710.230469 0 L 710.230469 810 L 99.730469 810 Z M 99.730469 0 " clip-rule="nonzero"/></clipPath><clipPath id="id2"><path d="M 162.363281 249 L 589 249 L 589 490.773438 L 162.363281 490.773438 Z M 162.363281 249 " clip-rule="nonzero"/></clipPath><clipPath id="id3"><path d="M 162.363281 412 L 199 412 L 199 427 L 162.363281 427 Z M 162.363281 412 " clip-rule="nonzero"/></clipPath><clipPath id="id4"><path d="M 162.363281 163.773438 L 348 163.773438 L 348 349 L 162.363281 349 Z M 162.363281 163.773438 " clip-rule="nonzero"/></clipPath></defs><g clip-path="url(#id1)"><path fill="#ffffff" d="M 161.589844 809.703125 C 160.667969 809.703125 159.746094 809.332031 158.839844 808.570312 C 157.058594 807.097656 155.488281 803.925781 153.5 799.914062 C 151.121094 795.09375 148.160156 789.105469 144.40625 785.980469 C 139.664062 782.035156 131.945312 779.347656 125.136719 776.984375 C 122.449219 776.046875 119.890625 775.15625 117.804688 774.28125 C 115.070312 773.132812 112.238281 772.453125 109.746094 771.855469 C 107.351562 771.273438 105.28125 770.785156 103.648438 769.976562 L 103.4375 769.863281 L 99.730469 774.054688 L 100.894531 117.546875 L 248.902344 117.546875 L 250.277344 117.679688 L 324.953125 36.964844 C 324.757812 35.230469 324.707031 33.5 326.375 32.289062 C 328.285156 30.894531 331.40625 31.835938 334.691406 32.835938 C 336.503906 33.386719 338.542969 34.003906 339.644531 33.90625 C 340.664062 33.808594 341.390625 33.0625 342.214844 32.222656 C 343.285156 31.136719 344.722656 29.664062 347.003906 30.167969 C 348.785156 30.554688 350.53125 32.289062 352.410156 34.117188 C 353.996094 35.667969 355.792969 37.417969 357.054688 37.707031 C 360 38.371094 363.265625 37.304688 364.964844 35.101562 C 365.871094 33.9375 366.261719 31.398438 366.632812 28.9375 C 367.039062 26.285156 367.457031 23.53125 368.589844 21.492188 C 369.886719 19.148438 371.84375 17.578125 373.734375 16.074219 C 375.144531 14.941406 376.488281 13.871094 377.488281 12.546875 C 378.300781 11.460938 378.847656 9.550781 379.398438 7.691406 C 380.417969 4.210938 381.566406 0.261719 385.109375 0.667969 C 387.667969 0.960938 390.710938 3.855469 395.417969 8.613281 C 397.78125 11.007812 400.242188 13.484375 402.085938 14.730469 C 404.820312 16.574219 407.230469 17.433594 409.542969 18.257812 C 411.144531 18.824219 412.796875 19.40625 414.480469 20.296875 C 418.960938 22.660156 423.199219 24.972656 426.03125 27.382812 C 427.667969 28.777344 428.539062 30.328125 429.300781 31.6875 C 429.996094 32.933594 430.59375 34.003906 431.679688 34.910156 C 433.460938 36.414062 437.632812 39.925781 440.902344 40.214844 C 442.082031 40.328125 443.71875 39.375 445.289062 38.453125 C 447.40625 37.207031 449.609375 35.910156 451.824219 36.496094 C 453.894531 37.042969 455.125 39.117188 456.304688 41.105469 C 457.390625 42.917969 458.492188 44.796875 460.042969 45.296875 C 461.824219 45.863281 465.15625 45.214844 468.085938 44.648438 C 471.144531 44.066406 473.765625 43.550781 475.625 44.019531 C 478.585938 44.761719 479.347656 47.09375 479.914062 48.792969 C 480.171875 49.570312 480.414062 50.3125 480.804688 50.816406 C 481.320312 51.460938 481.742188 52.175781 482.164062 52.855469 C 483.039062 54.292969 483.796875 55.539062 485.109375 55.960938 C 485.773438 56.171875 486.886719 55.863281 488.070312 55.523438 C 490.207031 54.910156 492.859375 54.148438 495.867188 55.378906 C 498.554688 56.460938 502.035156 59.3125 505.414062 62.0625 C 507.859375 64.050781 510.171875 65.929688 511.675781 66.738281 C 513.019531 67.449219 513.554688 67.253906 514.347656 66.949219 C 515.300781 66.59375 516.726562 66.042969 518.75 67.464844 C 520.125 68.4375 521.402344 70.3125 522.875 72.484375 C 524.539062 74.925781 526.597656 77.984375 528.390625 78.566406 C 529.878906 79.050781 532.082031 77.9375 534.234375 76.851562 C 536.546875 75.6875 538.925781 74.488281 541.273438 74.730469 C 545.6875 75.183594 551.546875 77.804688 553.699219 81.769531 C 555.671875 85.410156 554.816406 91.917969 553.859375 97.175781 C 553.179688 100.914062 551.515625 105.589844 548.894531 107.515625 C 547.097656 108.84375 544.78125 108.164062 542.921875 107.613281 C 542.128906 107.386719 541.140625 107.09375 540.738281 107.160156 C 540.1875 107.257812 539.636719 107.402344 539.183594 107.582031 C 539.507812 107.660156 539.847656 107.742188 540.140625 107.808594 C 543.148438 108.488281 546.546875 109.261719 546.96875 111.738281 C 547.289062 113.582031 545.6875 115.558594 543.828125 117.824219 C 542.46875 119.472656 540.800781 121.527344 540.722656 122.757812 C 540.65625 123.890625 541.820312 125.265625 542.9375 126.609375 C 544.347656 128.292969 545.800781 130.023438 545.738281 132.128906 C 545.671875 134.230469 544.007812 136.125 542.40625 137.9375 C 541.402344 139.085938 540.027344 140.640625 540.089844 141.367188 C 540.234375 143.292969 543.8125 146.53125 545.820312 146.933594 C 546.253906 147.015625 547.308594 146.140625 548.066406 145.511719 C 549.621094 144.183594 551.546875 142.550781 554.039062 143.195312 C 556.011719 143.714844 557.824219 145.511719 559.734375 147.4375 C 561.5625 149.265625 563.457031 151.15625 565.542969 152.0625 C 567.96875 153.117188 571.320312 153.519531 574.554688 153.910156 C 577.160156 154.230469 579.636719 154.523438 581.691406 155.136719 C 585.074219 156.15625 587.53125 157.515625 589.910156 158.828125 C 590.800781 159.3125 591.675781 159.800781 592.597656 160.253906 C 593.550781 160.722656 594.359375 161.078125 595.136719 161.433594 C 597.0625 162.289062 598.890625 163.082031 602.191406 165.382812 C 606.285156 168.246094 612.0625 172.875 615.21875 175.429688 L 616.769531 175.835938 C 627.144531 178.972656 644.585938 192.730469 653.160156 200.65625 C 661.332031 208.230469 665.734375 217.097656 667.96875 223.199219 C 669.457031 227.277344 668.484375 228.75 666.703125 230.691406 C 666.089844 231.355469 665.394531 232.113281 664.730469 233.246094 C 663.421875 235.480469 661.253906 238.328125 658.96875 241.339844 C 656.996094 243.945312 654.957031 246.628906 653.402344 248.992188 C 652.53125 250.320312 651.640625 251.597656 650.765625 252.828125 C 648.273438 256.355469 645.914062 259.6875 644.8125 263.636719 C 643.421875 268.636719 642.53125 275.984375 644.179688 281.664062 C 645.621094 286.632812 649.019531 290.5 653.324219 295.402344 L 654.535156 296.792969 C 659.761719 302.78125 669.277344 312.003906 673.757812 315.417969 C 676.625 317.601562 678.613281 317.730469 680.230469 317.84375 C 681.203125 317.910156 682.109375 317.976562 682.964844 318.429688 C 683.777344 318.863281 684.195312 319.429688 684.390625 319.980469 C 686.039062 318.996094 688.5 317.585938 689.941406 317.085938 C 691.363281 316.582031 692.871094 316.582031 694.082031 316.566406 C 694.246094 316.566406 694.40625 316.566406 694.585938 316.566406 C 694.246094 315.597656 694.617188 315.03125 695.019531 314.722656 C 695.183594 314.609375 696.023438 314.027344 697.011719 314.851562 L 697.15625 314.980469 C 697.253906 315.09375 699.585938 317.636719 701.105469 320.257812 C 701.347656 320.675781 701.640625 321.164062 701.945312 321.679688 C 703.582031 324.382812 705.8125 328.089844 706.300781 330.789062 C 706.671875 332.847656 705.878906 334.527344 705.246094 335.871094 C 704.792969 336.84375 704.40625 337.683594 704.4375 338.527344 C 704.472656 339.335938 704.664062 339.722656 705.070312 340.484375 C 705.652344 341.585938 706.429688 343.105469 706.945312 346.535156 C 707.804688 352.28125 709.164062 366.632812 709.46875 372.410156 C 709.566406 374.125 709.730469 375.242188 709.84375 376.132812 C 710.167969 378.398438 710.199219 379.238281 708.644531 381.988281 C 707.398438 384.222656 704.957031 386.667969 702.382812 389.238281 C 700.570312 391.050781 698.710938 392.914062 697.207031 394.757812 L 696.589844 395.5 C 693.191406 399.675781 690.246094 403.285156 686.640625 409.046875 C 685.117188 411.488281 683.679688 414.386719 682.15625 417.445312 C 679.925781 421.957031 677.398438 427.070312 674.035156 431.714844 C 669.796875 437.558594 663.628906 444.046875 658.195312 449.789062 C 656.429688 451.652344 654.746094 453.433594 653.226562 455.066406 C 650.507812 458.011719 647.855469 460.648438 645.28125 463.1875 C 642.140625 466.296875 639.164062 469.242188 636.980469 471.945312 C 632.886719 477.007812 631.253906 479.46875 629.699219 484.046875 C 629.410156 484.921875 629.296875 486.117188 629.375 487.800781 L 629.699219 492.136719 L 631.203125 495.957031 C 631.785156 497.882812 631.917969 499.484375 631.625 500.828125 C 630.703125 505.050781 627.222656 507.027344 623.179688 509.339844 C 621.851562 510.101562 620.476562 510.875 619.085938 511.800781 C 613.421875 515.539062 602.96875 521.183594 597.597656 523.820312 C 594.523438 525.328125 592.417969 525.859375 590.71875 526.28125 C 589.34375 526.621094 588.261719 526.898438 586.949219 527.578125 C 585.300781 528.433594 583.875 529.566406 582.386719 530.78125 C 581.109375 531.800781 579.796875 532.867188 578.261719 533.804688 C 574.71875 535.992188 571.660156 537.785156 567.386719 539.566406 C 563.132812 541.332031 557.988281 542.882812 552.566406 544.535156 L 552.210938 544.648438 C 546.5625 546.363281 539.28125 548.273438 533.972656 549.679688 C 531.855469 550.246094 530.105469 550.585938 528.425781 550.925781 C 525.65625 551.476562 523.050781 552.011719 519.023438 553.402344 C 515.980469 554.46875 511.773438 556.316406 507.679688 558.09375 C 502.941406 560.167969 498.035156 562.320312 494.527344 563.449219 C 490.125 564.875 487.921875 565.085938 485.140625 565.359375 C 483.714844 565.507812 482.097656 565.667969 479.867188 566.007812 L 454.625 569.792969 C 454.542969 569.792969 446.289062 570.214844 441.824219 571.605469 C 439.625 572.285156 436.988281 573.679688 434.429688 575.039062 C 431.632812 576.507812 428.992188 577.902344 426.726562 578.53125 C 424.140625 579.246094 422.375 578.96875 420.660156 578.710938 C 419.367188 578.515625 418.152344 578.320312 416.535156 578.582031 C 414.609375 578.871094 412.328125 579.566406 409.933594 580.296875 C 407.410156 581.058594 404.804688 581.851562 402.164062 582.335938 C 399.414062 582.835938 396.710938 583.078125 393.863281 583.320312 C 391.308594 583.546875 388.671875 583.773438 385.824219 584.210938 C 382.8125 584.679688 379.074219 585.441406 375.433594 586.171875 C 371.761719 586.914062 368.285156 587.609375 365.742188 587.984375 C 363.023438 588.386719 361.339844 588.355469 359.851562 588.355469 C 358.542969 588.339844 357.410156 588.324219 355.726562 588.613281 C 354.011719 588.90625 352.25 589.40625 350.371094 589.957031 C 348.300781 590.554688 345.9375 591.25 343.203125 591.753906 C 338.671875 592.59375 329.691406 594.066406 324.820312 594.292969 C 322.007812 594.421875 320.257812 593.9375 318.835938 593.550781 C 317.816406 593.273438 317.023438 593.046875 315.972656 593.046875 C 314.53125 593.046875 313.105469 593.339844 311.585938 593.644531 C 310.226562 593.921875 308.820312 594.195312 307.28125 594.308594 C 305.632812 594.421875 303.769531 594.359375 301.957031 594.308594 C 300.226562 594.261719 298.578125 594.210938 297.25 594.308594 C 296.101562 594.390625 295.195312 594.648438 294.238281 594.925781 C 293.027344 595.265625 291.78125 595.621094 290.195312 595.554688 C 288.898438 595.507812 287.929688 595.070312 286.976562 594.648438 C 285.761719 594.117188 284.5 593.566406 282.167969 593.664062 C 280.339844 593.742188 277.523438 594.375 274.546875 595.054688 C 270.46875 595.976562 266.246094 596.929688 263.222656 596.800781 C 260.050781 596.671875 257.734375 595.296875 255.679688 594.082031 C 254.273438 593.242188 253.042969 592.511719 251.863281 592.417969 C 250.566406 592.285156 249.453125 592.835938 248.140625 593.46875 C 246.585938 594.210938 244.839844 595.054688 242.511719 594.925781 C 237.980469 594.683594 231.039062 592.140625 228.253906 591.058594 C 224.550781 589.617188 221.621094 588.46875 218.949219 585.683594 C 217.59375 584.261719 216.667969 582.074219 215.78125 579.957031 C 215.066406 578.257812 214.257812 576.332031 213.53125 575.828125 C 213.109375 575.539062 212.851562 575.585938 211.554688 576.203125 C 210.519531 576.6875 209.242188 577.300781 207.527344 577.351562 C 206.039062 577.398438 203.902344 577.1875 201.652344 576.980469 C 199.421875 576.769531 196.6875 576.492188 195.539062 576.640625 C 195.617188 576.832031 195.714844 577.027344 195.796875 577.1875 C 196.023438 577.660156 196.25 578.160156 196.378906 578.695312 C 196.539062 579.359375 196.914062 580.152344 197.332031 580.992188 C 197.625 581.589844 197.933594 582.207031 198.191406 582.867188 C 198.449219 583.515625 198.613281 584.246094 198.757812 584.941406 C 198.933594 585.796875 199.195312 586.964844 199.582031 587.253906 C 199.792969 587.320312 200.796875 587.191406 201.394531 587.125 C 202.867188 586.945312 205.328125 586.640625 205.78125 588.757812 C 206.121094 590.3125 205.003906 592.367188 203.175781 595.585938 C 202.722656 596.398438 202.269531 597.191406 201.878906 597.917969 C 201.296875 599.035156 200.472656 600.167969 199.679688 601.234375 C 198.433594 602.933594 197.140625 604.683594 197.027344 606.121094 C 196.878906 608.226562 198.613281 610.945312 200.003906 613.128906 C 200.199219 613.4375 200.390625 613.742188 200.570312 614.035156 L 201.054688 614.828125 C 202.367188 616.949219 203.304688 618.484375 205.667969 619.796875 C 206.816406 620.425781 208.59375 620.765625 210.472656 621.105469 C 213.011719 621.574219 215.910156 622.125 218.269531 623.597656 C 221.832031 625.816406 229.160156 632.480469 229.613281 635.296875 C 229.757812 636.203125 229.386719 637.078125 228.609375 637.707031 C 226.554688 639.359375 221.75 639.3125 218.835938 638.160156 C 216.914062 637.402344 214.566406 635.363281 212.234375 633.242188 C 212.949219 634.101562 213.449219 635.054688 213.933594 635.992188 C 214.515625 637.109375 215.066406 638.160156 215.859375 638.726562 C 216.410156 639.132812 217.542969 639.246094 218.660156 639.375 C 220.503906 639.570312 222.816406 639.8125 223.820312 641.753906 C 224.921875 643.839844 224.339844 647.257812 223.773438 650.539062 C 223.609375 651.527344 223.449219 652.449219 223.351562 653.277344 C 223.09375 655.476562 222.625 657.675781 222.171875 659.796875 C 221.894531 661.074219 221.652344 662.273438 221.460938 663.40625 C 221.214844 664.84375 221.039062 666.109375 220.859375 667.335938 C 220.667969 668.664062 220.488281 670.039062 220.195312 671.578125 C 220.050781 672.371094 219.921875 673.277344 219.792969 674.230469 C 219.386719 676.980469 218.984375 679.8125 218.191406 681.382812 C 217.074219 683.617188 215.632812 683.777344 214.257812 683.941406 C 213.984375 683.972656 213.675781 684.003906 213.351562 684.054688 C 212.300781 684.230469 210.972656 684.132812 209.566406 684.054688 C 208.191406 683.957031 206.78125 683.875 205.859375 684.054688 L 205.503906 684.117188 C 203.691406 684.472656 202.6875 684.667969 201.75 685.980469 C 200.570312 687.613281 199.777344 690.574219 198.855469 694.265625 C 197.914062 698.019531 196.492188 704.894531 196.394531 707.757812 C 196.363281 708.84375 196.589844 709.070312 197.011719 709.472656 C 197.480469 709.945312 198.191406 710.640625 198.273438 712.015625 L 198.273438 712.144531 C 198.386719 714.167969 198.578125 717.53125 196.703125 719.910156 C 195.683594 721.207031 193.804688 722.078125 191.976562 722.9375 C 190.617188 723.570312 189.082031 724.296875 188.515625 724.960938 C 187.382812 726.320312 187.382812 726.886719 187.59375 730.023438 L 187.609375 730.203125 C 187.996094 736.109375 188.855469 740.820312 189.9375 742.761719 C 190.683594 744.101562 192.042969 744.6875 193.613281 745.347656 C 194.859375 745.882812 196.136719 746.417969 197.1875 747.421875 C 198.386719 748.554688 199.273438 750.058594 200.066406 751.386719 C 200.78125 752.566406 201.445312 753.683594 202.121094 754.25 C 202.707031 754.734375 203.886719 754.878906 204.839844 754.992188 C 206.25 755.171875 207.851562 755.367188 208.253906 756.886719 C 208.5625 758.003906 207.949219 759.363281 207.382812 760.300781 C 206.960938 760.996094 205.441406 763.277344 203.402344 763.730469 C 201.863281 764.085938 199.859375 763.117188 197.933594 762.179688 C 197.558594 762 197.089844 761.773438 196.671875 761.597656 C 196.832031 762.113281 197.089844 762.777344 197.480469 763.488281 L 197.707031 763.925781 C 198.320312 765.105469 199.613281 767.566406 200.78125 767.746094 C 201.378906 767.808594 203.449219 766.660156 204.550781 766.046875 C 206.894531 764.734375 208.757812 763.699219 209.890625 765.15625 C 210.925781 766.484375 209.9375 768.328125 208.304688 771.371094 C 207.574219 772.730469 206.816406 774.136719 206.328125 775.382812 C 205.875 776.515625 205.472656 777.9375 205.035156 779.445312 C 204.160156 782.46875 203.273438 785.59375 201.75 787.648438 C 199.972656 790.042969 197.996094 790.902344 195.699219 791.902344 C 194.875 792.261719 194.03125 792.632812 193.078125 793.101562 C 191.378906 793.960938 189.03125 794.882812 186.539062 795.886719 C 183.53125 797.082031 180.410156 798.328125 178.742188 799.332031 C 177.351562 800.171875 176.898438 801.046875 176.429688 801.96875 C 175.976562 802.84375 175.457031 803.847656 174.226562 804.429688 C 172.902344 805.042969 171.574219 804.800781 170.390625 804.589844 C 169.453125 804.414062 168.582031 804.25 167.789062 804.507812 C 167.429688 804.621094 166.6875 805.675781 166.234375 806.304688 C 165.167969 807.792969 163.953125 809.492188 162.058594 809.738281 C 161.898438 809.6875 161.753906 809.703125 161.589844 809.703125 Z M 105.152344 767.40625 C 106.480469 768.019531 108.324219 768.457031 110.460938 768.976562 C 113.0625 769.605469 116.007812 770.300781 118.96875 771.546875 C 120.976562 772.390625 123.46875 773.261719 126.121094 774.183594 C 133.175781 776.628906 141.171875 779.410156 146.316406 783.699219 C 150.539062 787.226562 153.660156 793.539062 156.167969 798.601562 C 157.851562 802 159.4375 805.222656 160.75 806.304688 C 160.976562 806.484375 161.394531 806.773438 161.6875 806.742188 C 162.300781 806.660156 163.191406 805.433594 163.839844 804.527344 C 164.714844 803.3125 165.601562 802.050781 166.898438 801.644531 C 168.402344 801.175781 169.808594 801.433594 170.941406 801.644531 C 171.800781 801.808594 172.527344 801.9375 172.980469 801.726562 C 173.289062 801.582031 173.433594 801.320312 173.824219 800.59375 C 174.375 799.527344 175.132812 798.054688 177.253906 796.773438 C 179.113281 795.660156 182.351562 794.363281 185.472656 793.117188 C 187.785156 792.195312 190.183594 791.242188 191.785156 790.449219 C 192.820312 789.929688 193.742188 789.527344 194.550781 789.167969 C 196.765625 788.199219 198.109375 787.617188 199.40625 785.867188 C 200.601562 784.25 201.476562 781.257812 202.21875 778.617188 C 202.671875 777.050781 203.09375 775.5625 203.59375 774.28125 C 204.144531 772.875 204.988281 771.320312 205.714844 769.945312 C 205.992188 769.429688 206.3125 768.8125 206.605469 768.246094 C 206.394531 768.359375 206.183594 768.472656 206.007812 768.585938 C 203.546875 769.960938 201.816406 770.851562 200.359375 770.625 C 197.707031 770.222656 196.070312 767.113281 195.101562 765.253906 L 194.875 764.832031 C 194.015625 763.230469 193.125 760.996094 193.757812 759.539062 C 194.015625 758.925781 194.519531 758.488281 195.164062 758.3125 C 196.21875 758.019531 197.414062 758.601562 199.210938 759.476562 C 200.164062 759.945312 202.171875 760.917969 202.753906 760.804688 C 203.5625 760.625 204.824219 758.972656 205.246094 757.988281 C 204.988281 757.9375 204.695312 757.90625 204.46875 757.875 C 203.140625 757.710938 201.492188 757.5 200.246094 756.484375 C 199.160156 755.59375 198.371094 754.25 197.527344 752.839844 C 196.800781 751.628906 196.054688 750.367188 195.148438 749.507812 C 194.484375 748.878906 193.5 748.457031 192.445312 748.019531 C 190.632812 747.242188 188.578125 746.367188 187.332031 744.136719 C 185.554688 740.914062 184.890625 734.101562 184.648438 730.332031 L 184.632812 730.15625 C 184.421875 726.933594 184.324219 725.316406 186.234375 723.003906 C 187.203125 721.820312 188.902344 721.027344 190.714844 720.1875 C 192.15625 719.507812 193.789062 718.746094 194.371094 718.003906 C 195.554688 716.496094 195.40625 713.925781 195.328125 712.226562 L 195.328125 712.097656 C 195.3125 711.871094 195.3125 711.851562 194.953125 711.496094 C 194.144531 710.703125 193.371094 709.765625 193.449219 707.566406 C 193.5625 704.441406 195.003906 697.433594 196.007812 693.453125 C 197.042969 689.3125 197.882812 686.222656 199.371094 684.167969 C 200.992188 681.917969 202.914062 681.546875 204.9375 681.140625 L 205.292969 681.074219 C 206.589844 680.816406 208.207031 680.929688 209.777344 681.027344 C 210.941406 681.109375 212.15625 681.1875 212.867188 681.058594 C 213.253906 680.996094 213.613281 680.960938 213.917969 680.914062 C 215.066406 680.785156 215.148438 680.769531 215.535156 679.976562 C 216.121094 678.828125 216.523438 675.980469 216.863281 673.714844 C 217.007812 672.726562 217.140625 671.789062 217.285156 670.960938 C 217.542969 669.472656 217.738281 668.179688 217.933594 666.835938 C 218.109375 665.574219 218.289062 664.296875 218.546875 662.824219 C 218.757812 661.640625 219.015625 660.410156 219.289062 659.117188 C 219.726562 657.0625 220.179688 654.925781 220.421875 652.855469 C 220.535156 651.964844 220.699219 650.992188 220.875 649.976562 C 221.28125 647.5625 221.847656 644.246094 221.214844 643.050781 C 220.941406 642.515625 219.566406 642.371094 218.351562 642.238281 C 216.863281 642.078125 215.308594 641.917969 214.113281 641.042969 C 212.785156 640.054688 212.042969 638.664062 211.328125 637.304688 C 210.796875 636.285156 210.277344 635.3125 209.582031 634.652344 C 208.789062 633.890625 207.269531 633.097656 205.925781 632.402344 C 203.902344 631.347656 202.835938 630.75 202.382812 629.84375 C 201.878906 628.824219 202.15625 627.515625 203.078125 626.574219 C 204.046875 625.589844 205.894531 624.910156 208.09375 625.960938 C 209.453125 626.609375 211.25 628.273438 213.335938 630.183594 C 215.632812 632.289062 218.238281 634.683594 219.90625 635.332031 C 222.300781 636.285156 225.648438 635.992188 226.589844 635.445312 C 225.796875 633.777344 220.535156 628.421875 216.703125 626.027344 C 214.808594 624.84375 212.316406 624.375 209.921875 623.9375 C 207.800781 623.550781 205.796875 623.160156 204.226562 622.304688 C 201.167969 620.621094 199.890625 618.515625 198.515625 616.285156 L 198.03125 615.507812 C 197.851562 615.234375 197.671875 614.925781 197.480469 614.632812 C 195.859375 612.09375 193.839844 608.921875 194.050781 605.832031 C 194.210938 603.53125 195.765625 601.429688 197.269531 599.390625 C 198.03125 598.355469 198.757812 597.382812 199.226562 596.460938 C 199.613281 595.699219 200.085938 594.875 200.570312 594.035156 C 201.265625 592.820312 202.332031 590.945312 202.707031 589.875 C 202.382812 589.890625 201.992188 589.941406 201.71875 589.972656 C 200.292969 590.152344 198.820312 590.328125 197.769531 589.535156 C 196.507812 588.582031 196.152344 586.945312 195.828125 585.492188 C 195.699219 584.875 195.570312 584.308594 195.40625 583.871094 C 195.179688 583.320312 194.90625 582.738281 194.632812 582.1875 C 194.164062 581.234375 193.675781 580.246094 193.449219 579.261719 C 193.402344 579.050781 193.222656 578.679688 193.078125 578.371094 C 192.640625 577.449219 192.089844 576.300781 192.640625 575.132812 C 192.964844 574.4375 193.613281 573.953125 194.535156 573.726562 C 195.878906 573.386719 198.207031 573.582031 201.898438 573.9375 C 203.953125 574.132812 206.085938 574.359375 207.398438 574.308594 C 208.5 574.277344 209.386719 573.855469 210.261719 573.433594 C 211.621094 572.789062 213.304688 571.996094 215.195312 573.320312 C 216.621094 574.308594 217.511719 576.460938 218.464844 578.726562 C 219.257812 580.585938 220.066406 582.527344 221.054688 583.546875 C 223.175781 585.765625 225.457031 586.71875 229.308594 588.210938 C 231.363281 589.019531 238.433594 591.65625 242.65625 591.882812 C 244.242188 591.980469 245.503906 591.347656 246.847656 590.699219 C 248.335938 589.988281 250 589.179688 252.121094 589.375 C 253.980469 589.535156 255.535156 590.472656 257.1875 591.445312 C 259.015625 592.53125 260.90625 593.664062 263.335938 593.757812 C 265.972656 593.871094 270.179688 592.917969 273.882812 592.078125 C 276.992188 591.378906 279.921875 590.71875 282.023438 590.621094 C 285.050781 590.472656 286.78125 591.234375 288.15625 591.851562 C 288.980469 592.207031 289.5625 592.464844 290.308594 592.496094 C 291.425781 592.546875 292.347656 592.285156 293.429688 591.980469 C 294.449219 591.6875 295.597656 591.363281 297.039062 591.25 C 298.511719 591.136719 300.226562 591.1875 302.039062 591.25 C 303.769531 591.300781 305.566406 591.347656 307.070312 591.25 C 308.414062 591.171875 309.726562 590.894531 310.988281 590.636719 C 312.574219 590.3125 314.222656 589.988281 315.953125 589.988281 C 317.410156 589.988281 318.527344 590.296875 319.613281 590.605469 C 320.953125 590.976562 322.328125 591.347656 324.660156 591.25 C 328.753906 591.058594 336.859375 589.828125 342.652344 588.757812 C 345.242188 588.289062 347.425781 587.640625 349.53125 587.027344 C 351.488281 586.460938 353.332031 585.925781 355.226562 585.605469 C 357.152344 585.28125 358.460938 585.296875 359.851562 585.3125 C 361.292969 585.328125 362.78125 585.34375 365.289062 584.972656 C 367.75 584.617188 371.195312 583.921875 374.835938 583.191406 C 378.492188 582.449219 382.28125 581.6875 385.355469 581.21875 C 388.300781 580.765625 390.984375 580.523438 393.589844 580.296875 C 396.375 580.054688 399.011719 579.828125 401.617188 579.339844 C 404.089844 578.886719 406.617188 578.113281 409.058594 577.382812 C 411.566406 576.621094 413.929688 575.910156 416.082031 575.570312 C 418.167969 575.246094 419.738281 575.488281 421.113281 575.699219 C 422.652344 575.941406 423.976562 576.136719 425.953125 575.601562 C 427.910156 575.070312 430.402344 573.742188 433.054688 572.351562 C 435.726562 570.941406 438.492188 569.488281 440.949219 568.710938 C 445.59375 567.269531 453.507812 566.816406 454.414062 566.769531 L 479.429688 563.015625 C 481.726562 562.640625 483.394531 562.480469 484.867188 562.335938 C 487.566406 562.074219 489.527344 561.882812 493.621094 560.554688 C 496.984375 559.46875 501.824219 557.351562 506.5 555.296875 C 510.820312 553.402344 514.898438 551.621094 518.050781 550.523438 C 522.257812 549.050781 524.976562 548.5 527.839844 547.933594 C 529.492188 547.609375 531.175781 547.269531 533.214844 546.71875 C 538.503906 545.328125 545.753906 543.402344 551.351562 541.71875 L 551.707031 541.605469 C 557.0625 539.988281 562.128906 538.449219 566.253906 536.734375 C 570.316406 535.050781 573.277344 533.304688 576.707031 531.183594 C 578.082031 530.34375 579.328125 529.339844 580.527344 528.386719 C 582.078125 527.140625 583.664062 525.84375 585.589844 524.859375 C 587.207031 524.03125 588.550781 523.691406 589.992188 523.320312 C 591.625 522.914062 593.488281 522.445312 596.285156 521.070312 C 601.449219 518.53125 611.964844 512.867188 617.449219 509.242188 C 618.921875 508.269531 620.332031 507.460938 621.707031 506.683594 C 625.410156 504.566406 628.097656 503.042969 628.730469 500.117188 C 628.90625 499.289062 628.792969 498.191406 628.371094 496.78125 L 626.769531 492.71875 L 626.398438 487.882812 C 626.300781 485.746094 626.445312 484.257812 626.882812 482.996094 C 628.679688 477.738281 630.71875 474.855469 634.652344 469.984375 C 636.933594 467.152344 639.957031 464.160156 643.160156 460.988281 C 645.703125 458.464844 648.339844 455.859375 651.007812 452.960938 C 652.53125 451.3125 654.230469 449.515625 656.007812 447.65625 C 661.382812 441.976562 667.480469 435.550781 671.609375 429.871094 C 674.828125 425.421875 677.191406 420.648438 679.472656 416.019531 C 681.023438 412.878906 682.480469 409.917969 684.082031 407.347656 C 687.789062 401.441406 690.78125 397.765625 694.246094 393.511719 L 694.859375 392.765625 C 696.445312 390.808594 698.371094 388.882812 700.230469 387.023438 C 702.660156 384.59375 704.957031 382.296875 706.007812 380.417969 C 707.140625 378.398438 707.109375 378.21875 706.847656 376.40625 C 706.71875 375.5 706.542969 374.269531 706.445312 372.425781 C 706.136719 366.714844 704.792969 352.507812 703.953125 346.828125 C 703.515625 343.882812 702.886719 342.667969 702.382812 341.695312 C 701.929688 340.808594 701.492188 339.964844 701.429688 338.507812 C 701.363281 336.957031 701.980469 335.644531 702.511719 334.496094 C 703.0625 333.332031 703.53125 332.3125 703.320312 331.179688 C 702.933594 329.011719 700.78125 325.433594 699.359375 323.070312 C 699.035156 322.539062 698.742188 322.050781 698.484375 321.617188 C 697.964844 320.710938 697.320312 319.804688 696.71875 319.027344 C 696.6875 319.042969 696.640625 319.058594 696.605469 319.074219 C 695.925781 319.382812 695.085938 319.382812 694.050781 319.398438 C 693 319.398438 691.816406 319.414062 690.863281 319.753906 C 689.277344 320.304688 685.554688 322.554688 684.261719 323.378906 L 684.003906 323.542969 L 683.695312 323.589844 C 682.789062 323.71875 682.253906 323.410156 681.964844 323.105469 C 681.316406 322.457031 681.445312 321.648438 681.527344 321.210938 C 681.542969 321.128906 681.558594 321.015625 681.558594 320.9375 C 681.542969 320.9375 681.542969 320.917969 681.527344 320.917969 C 681.21875 320.757812 680.667969 320.710938 679.972656 320.675781 C 678.191406 320.5625 675.492188 320.371094 671.914062 317.652344 C 666.785156 313.734375 657.125 304.203125 652.253906 298.621094 L 651.042969 297.230469 C 646.496094 292.050781 642.917969 287.957031 641.285156 282.375 C 639.730469 277.050781 639.972656 269.722656 641.898438 262.730469 C 643.128906 258.265625 645.636719 254.738281 648.292969 251 C 649.148438 249.785156 650.039062 248.539062 650.863281 247.261719 C 652.464844 244.800781 654.535156 242.066406 656.542969 239.429688 C 658.777344 236.484375 660.878906 233.714844 662.109375 231.628906 C 662.933594 230.222656 663.792969 229.300781 664.472656 228.570312 C 665.765625 227.164062 666.121094 226.789062 665.136719 224.105469 C 663 218.3125 658.839844 209.882812 651.089844 202.710938 C 642.09375 194.378906 625.21875 181.367188 615.914062 178.570312 L 613.777344 178.019531 L 613.375 177.679688 C 608.050781 173.34375 603.453125 169.800781 600.445312 167.695312 C 597.386719 165.558594 595.769531 164.847656 593.890625 164.023438 C 593.082031 163.667969 592.242188 163.292969 591.222656 162.792969 C 590.265625 162.324219 589.359375 161.804688 588.4375 161.304688 C 586.207031 160.074219 583.875 158.796875 580.800781 157.855469 C 578.988281 157.308594 576.644531 157.03125 574.167969 156.722656 C 570.722656 156.304688 567.160156 155.882812 564.34375 154.652344 C 561.742188 153.519531 559.554688 151.335938 557.613281 149.394531 C 555.996094 147.777344 554.460938 146.238281 553.277344 145.929688 C 552.339844 145.6875 551.351562 146.449219 549.960938 147.644531 C 548.601562 148.796875 547.066406 150.105469 545.203125 149.71875 C 542.292969 149.101562 537.40625 145.089844 537.128906 141.480469 C 536.984375 139.507812 538.539062 137.742188 540.171875 135.867188 C 541.367188 134.507812 542.726562 132.953125 542.761719 131.902344 C 542.792969 130.929688 541.707031 129.636719 540.65625 128.390625 C 539.234375 126.691406 537.613281 124.75 537.746094 122.453125 C 537.875 120.28125 539.734375 118.015625 541.515625 115.832031 C 542.453125 114.683594 544.039062 112.742188 544.039062 112.09375 C 543.683594 111.527344 540.722656 110.847656 539.460938 110.558594 C 537.257812 110.054688 536.175781 109.78125 535.558594 109.019531 C 535.074219 108.40625 534.945312 107.660156 535.21875 106.949219 C 536.011719 104.863281 540.058594 104.167969 540.238281 104.132812 C 541.320312 103.957031 542.484375 104.296875 543.730469 104.667969 C 544.976562 105.023438 546.515625 105.476562 547.128906 105.023438 C 548.667969 103.890625 550.234375 100.394531 550.949219 96.527344 C 551.417969 93.988281 552.839844 86.253906 551.109375 83.066406 C 549.507812 80.136719 544.605469 77.917969 540.964844 77.546875 C 539.492188 77.402344 537.484375 78.40625 535.558594 79.375 C 532.890625 80.71875 530.125 82.109375 527.484375 81.253906 C 524.734375 80.363281 522.550781 77.144531 520.429688 74.019531 C 519.234375 72.253906 517.988281 70.425781 517.050781 69.765625 C 516.320312 69.246094 516.160156 69.3125 515.398438 69.601562 C 514.378906 69.992188 512.828125 70.574219 510.316406 69.246094 C 508.539062 68.308594 506.128906 66.332031 503.570312 64.246094 C 500.511719 61.753906 497.050781 58.921875 494.769531 58 C 492.699219 57.160156 490.753906 57.707031 488.878906 58.242188 C 487.261719 58.710938 485.722656 59.148438 484.203125 58.664062 C 481.824219 57.902344 480.660156 55.976562 479.625 54.261719 C 479.234375 53.628906 478.878906 53.03125 478.472656 52.515625 C 477.761719 51.609375 477.40625 50.539062 477.097656 49.601562 C 476.550781 47.96875 476.210938 47.09375 474.898438 46.753906 C 473.683594 46.445312 471.113281 46.949219 468.636719 47.417969 C 465.191406 48.082031 461.628906 48.777344 459.136719 47.984375 C 456.515625 47.15625 455.042969 44.683594 453.75 42.480469 C 452.859375 40.992188 451.953125 39.457031 451.046875 39.210938 C 450.027344 38.9375 448.378906 39.910156 446.777344 40.847656 C 444.800781 42.011719 442.78125 43.226562 440.628906 43.015625 C 436.9375 42.675781 433.070312 39.796875 429.769531 37.027344 C 428.28125 35.765625 427.488281 34.359375 426.726562 33 C 426.015625 31.738281 425.351562 30.539062 424.125 29.488281 C 421.519531 27.269531 417.425781 25.039062 413.105469 22.773438 C 411.617188 21.980469 410.128906 21.460938 408.558594 20.894531 C 406.050781 20.003906 403.476562 19.082031 400.433594 17.042969 C 398.347656 15.636719 395.902344 13.175781 393.316406 10.554688 C 390.433594 7.640625 386.488281 3.660156 384.789062 3.46875 C 383.703125 3.355469 382.894531 6.136719 382.246094 8.386719 C 381.632812 10.492188 381 12.675781 379.867188 14.179688 C 378.640625 15.8125 377.101562 17.058594 375.597656 18.257812 C 373.851562 19.648438 372.214844 20.976562 371.195312 22.804688 C 370.324219 24.390625 369.933594 26.867188 369.5625 29.277344 C 369.109375 32.238281 368.671875 35.039062 367.296875 36.816406 C 364.902344 39.890625 360.417969 41.398438 356.390625 40.492188 C 354.304688 40.023438 352.28125 38.046875 350.339844 36.121094 C 348.929688 34.730469 347.3125 33.160156 346.359375 32.949219 C 345.777344 32.820312 345.386719 33.113281 344.320312 34.195312 C 343.285156 35.25 342.007812 36.542969 339.917969 36.753906 C 338.253906 36.914062 336.101562 36.269531 333.835938 35.570312 C 331.957031 35.003906 328.835938 34.050781 328.105469 34.585938 C 327.75 34.84375 327.734375 35.199219 327.945312 37.011719 L 328.007812 37.902344 L 327.589844 38.386719 L 251.457031 120.785156 L 248.691406 120.507812 L 103.855469 120.507812 L 102.691406 766.304688 L 103.242188 765.691406 Z M 205.199219 628.613281 C 205.667969 628.9375 206.574219 629.40625 207.285156 629.78125 C 208.417969 630.363281 209.648438 631.027344 210.667969 631.738281 C 209.128906 630.347656 207.65625 629.035156 206.816406 628.632812 C 206.265625 628.371094 205.78125 628.324219 205.425781 628.484375 C 205.328125 628.519531 205.261719 628.566406 205.199219 628.613281 Z M 204.9375 628.40625 Z M 204.9375 628.40625 " fill-opacity="1" fill-rule="nonzero"/></g><g clip-path="url(#id2)"><path fill="#ffffff" d="M 468.148438 355.707031 L 468.148438 291.730469 L 514.964844 291.730469 L 574.777344 351.542969 L 574.777344 355.707031 Z M 503.691406 476.554688 C 484.085938 476.554688 468.148438 460.617188 468.148438 441.011719 C 468.148438 421.410156 484.085938 405.46875 503.691406 405.46875 C 523.292969 405.46875 539.234375 421.410156 539.234375 441.011719 C 539.234375 460.617188 523.292969 476.554688 503.691406 476.554688 Z M 339.417969 476.554688 C 347.054688 469.085938 352.246094 459.171875 353.828125 448.121094 L 454.515625 448.121094 C 456.097656 459.171875 461.289062 469.085938 468.925781 476.554688 Z M 269.109375 441.011719 C 269.109375 421.410156 285.046875 405.46875 304.652344 405.46875 C 324.257812 405.46875 340.195312 421.410156 340.195312 441.011719 C 340.195312 460.617188 324.257812 476.554688 304.652344 476.554688 C 285.046875 476.554688 269.109375 460.617188 269.109375 441.011719 Z M 586.910156 343.574219 L 498.664062 255.324219 C 494.636719 251.300781 489.28125 249.078125 483.585938 249.078125 L 361.519531 249.078125 L 361.519531 263.296875 L 397.0625 263.296875 L 397.0625 369.925781 L 411.28125 369.925781 L 411.28125 263.296875 L 483.585938 263.296875 C 485.476562 263.296875 487.28125 264.046875 488.613281 265.378906 L 500.746094 277.511719 L 468.148438 277.511719 C 460.316406 277.511719 453.929688 283.898438 453.929688 291.730469 L 453.929688 355.707031 C 453.929688 363.539062 460.316406 369.925781 468.148438 369.925781 L 574.777344 369.925781 L 574.777344 426.796875 C 574.777344 430.710938 571.582031 433.902344 567.667969 433.902344 L 552.867188 433.902344 C 549.425781 409.828125 528.710938 391.25 503.691406 391.25 C 478.671875 391.25 457.957031 409.828125 454.515625 433.902344 L 353.828125 433.902344 C 350.386719 409.828125 329.671875 391.25 304.652344 391.25 C 279.632812 391.25 258.917969 409.828125 255.476562 433.902344 L 240.675781 433.902344 C 236.761719 433.902344 233.566406 430.710938 233.566406 426.796875 L 233.566406 362.816406 L 219.351562 362.816406 L 219.351562 426.796875 C 219.351562 438.570312 228.902344 448.121094 240.675781 448.121094 L 255.476562 448.121094 C 257.058594 459.171875 262.25 469.085938 269.886719 476.554688 L 162.480469 476.554688 L 162.480469 490.773438 L 503.691406 490.773438 C 528.710938 490.773438 549.425781 472.195312 552.867188 448.121094 L 567.667969 448.121094 C 579.441406 448.121094 588.992188 438.570312 588.992188 426.796875 L 588.992188 348.601562 C 588.992188 346.710938 588.242188 344.90625 586.910156 343.574219 " fill-opacity="1" fill-rule="nonzero"/></g><path fill="#ffffff" d="M 297.542969 448.121094 L 311.761719 448.121094 L 311.761719 433.902344 L 297.542969 433.902344 L 297.542969 448.121094 " fill-opacity="1" fill-rule="nonzero"/><path fill="#ffffff" d="M 496.582031 448.121094 L 510.800781 448.121094 L 510.800781 433.902344 L 496.582031 433.902344 L 496.582031 448.121094 " fill-opacity="1" fill-rule="nonzero"/><g clip-path="url(#id3)"><path fill="#ffffff" d="M 198.023438 412.578125 L 162.480469 412.578125 L 162.480469 426.796875 L 198.023438 426.796875 L 198.023438 412.578125 " fill-opacity="1" fill-rule="nonzero"/></g><path fill="#ffffff" d="M 176.699219 398.359375 L 198.023438 398.359375 L 198.023438 384.144531 L 176.699219 384.144531 L 176.699219 398.359375 " fill-opacity="1" fill-rule="nonzero"/><path fill="#ffffff" d="M 198.023438 355.707031 L 183.808594 355.707031 L 183.808594 369.925781 L 198.023438 369.925781 L 198.023438 355.707031 " fill-opacity="1" fill-rule="nonzero"/><g clip-path="url(#id4)"><path fill="#ffffff" d="M 254.894531 177.992188 C 298.015625 177.992188 333.085938 213.0625 333.085938 256.1875 C 333.085938 299.3125 298.015625 334.382812 254.894531 334.382812 C 211.769531 334.382812 176.699219 299.3125 176.699219 256.1875 C 176.699219 213.0625 211.769531 177.992188 254.894531 177.992188 Z M 254.894531 348.601562 C 305.847656 348.601562 347.304688 307.140625 347.304688 256.1875 C 347.304688 205.230469 305.847656 163.773438 254.894531 163.773438 C 203.9375 163.773438 162.480469 205.230469 162.480469 256.1875 C 162.480469 307.140625 203.9375 348.601562 254.894531 348.601562 " fill-opacity="1" fill-rule="nonzero"/></g><path fill="#ffffff" d="M 254.894531 206.425781 C 274.496094 206.425781 290.433594 222.363281 290.433594 241.96875 C 290.433594 260.214844 268.054688 288.398438 254.894531 302.753906 C 241.730469 288.398438 219.351562 260.214844 219.351562 241.96875 C 219.351562 222.363281 235.289062 206.425781 254.894531 206.425781 Z M 254.894531 320.164062 C 256.726562 320.164062 258.53125 319.46875 259.917969 318.082031 C 264.5 313.5 304.652344 272.457031 304.652344 241.96875 C 304.652344 214.535156 282.328125 192.207031 254.894531 192.207031 C 227.457031 192.207031 205.132812 214.535156 205.132812 241.96875 C 205.132812 272.457031 245.285156 313.5 249.867188 318.082031 C 251.253906 319.46875 253.058594 320.164062 254.894531 320.164062 " fill-opacity="1" fill-rule="nonzero"/><path fill="#ffffff" d="M 247.785156 241.96875 C 247.785156 238.054688 250.976562 234.859375 254.894531 234.859375 C 258.808594 234.859375 262 238.054688 262 241.96875 C 262 245.882812 258.808594 249.078125 254.894531 249.078125 C 250.976562 249.078125 247.785156 245.882812 247.785156 241.96875 Z M 276.21875 241.96875 C 276.21875 230.195312 266.667969 220.644531 254.894531 220.644531 C 243.121094 220.644531 233.566406 230.195312 233.566406 241.96875 C 233.566406 253.742188 243.121094 263.296875 254.894531 263.296875 C 266.667969 263.296875 276.21875 253.742188 276.21875 241.96875 " fill-opacity="1" fill-rule="nonzero"/><path fill="#ffffff" d="M 432.605469 384.144531 L 432.605469 398.359375 L 461.039062 398.359375 L 461.039062 384.144531 L 432.605469 384.144531 " fill-opacity="1" fill-rule="nonzero"/></svg>